<svg width="70" height="66" viewBox="0 0 70 66" fill="none" xmlns="http://www.w3.org/2000/svg">
<path fill-rule="evenodd" clip-rule="evenodd" d="M35 1C42.462 1 48.8635 5.54059 51.5922 12.0096C61.2592 12.322 69 20.257 69 30C69 35.4767 66.5541 40.3821 62.6951 43.6835C62.8953 44.7584 63 45.867 63 47C63 56.9411 54.9411 65 45 65C41.2997 65 37.8602 63.8835 35 61.9689C32.1398 63.8835 28.7003 65 25 65C15.0589 65 7 56.9411 7 47C7 45.867 7.10468 44.7584 7.3049 43.6835C3.44588 40.3821 1 35.4767 1 30C1 20.257 8.74078 12.322 18.4078 12.0096C21.1365 5.54059 27.538 1 35 1Z" fill="#FBEFB5"/>
<path d="M51.5922 12.0096L51.1315 12.2039L51.256 12.499L51.5761 12.5093L51.5922 12.0096ZM62.6951 43.6835L62.3701 43.3035L62.1507 43.4912L62.2035 43.775L62.6951 43.6835ZM35 61.9689L35.2781 61.5534L35 61.3672L34.7219 61.5534L35 61.9689ZM7.3049 43.6835L7.79645 43.775L7.84931 43.4912L7.62994 43.3035L7.3049 43.6835ZM18.4078 12.0096L18.4239 12.5093L18.744 12.499L18.8685 12.2039L18.4078 12.0096ZM52.0529 11.8152C49.2488 5.16756 42.67 0.5 35 0.5V1.5C42.2539 1.5 48.4781 5.91362 51.1315 12.2039L52.0529 11.8152ZM69.5 30C69.5 19.9863 61.5442 11.831 51.6084 11.5098L51.5761 12.5093C60.9742 12.8131 68.5 20.5278 68.5 30H69.5ZM63.0201 44.0634C66.9855 40.6711 69.5 35.6289 69.5 30H68.5C68.5 35.3244 66.1228 40.0931 62.3701 43.3035L63.0201 44.0634ZM62.2035 43.775C62.3982 44.8199 62.5 45.8978 62.5 47H63.5C63.5 45.8361 63.3925 44.6969 63.1866 43.5919L62.2035 43.775ZM62.5 47C62.5 56.665 54.665 64.5 45 64.5V65.5C55.2173 65.5 63.5 57.2173 63.5 47H62.5ZM45 64.5C41.4018 64.5 38.0586 63.4146 35.2781 61.5534L34.7219 62.3844C37.6618 64.3523 41.1976 65.5 45 65.5V64.5ZM25 65.5C28.8024 65.5 32.3382 64.3523 35.2781 62.3844L34.7219 61.5534C31.9414 63.4146 28.5982 64.5 25 64.5V65.5ZM6.5 47C6.5 57.2173 14.7827 65.5 25 65.5V64.5C15.335 64.5 7.5 56.665 7.5 47H6.5ZM6.81336 43.5919C6.60754 44.6969 6.5 45.8361 6.5 47H7.5C7.5 45.8978 7.60183 44.8199 7.79645 43.775L6.81336 43.5919ZM0.5 30C0.5 35.6289 3.01455 40.6711 6.97987 44.0634L7.62994 43.3035C3.87722 40.0931 1.5 35.3244 1.5 30H0.5ZM18.3916 11.5098C8.45579 11.831 0.5 19.9863 0.5 30H1.5C1.5 20.5278 9.02577 12.8131 18.4239 12.5093L18.3916 11.5098ZM35 0.5C27.33 0.5 20.7512 5.16756 17.9471 11.8152L18.8685 12.2039C21.5218 5.91362 27.7461 1.5 35 1.5V0.5Z" fill="#FBEFB5"/>
<mask id="path-3-outside-1_960_6896" maskUnits="userSpaceOnUse" x="17" y="20" width="31" height="35" fill="black">
<rect fill="white" x="17" y="20" width="31" height="35"/>
<path d="M22.8209 21.6875V33H21.0866V23.4062H21.0241L18.3209 25.1719V23.5312L21.1334 21.6875H22.8209ZM29.9534 33.1562C27.3284 33.1562 25.7972 31.0469 25.7972 27.3438C25.7972 23.6719 27.3597 21.5312 29.9534 21.5312C32.5472 21.5312 34.1097 23.6719 34.1097 27.3438C34.1097 31.0469 32.5628 33.1562 29.9534 33.1562ZM29.9534 31.6719C31.4847 31.6719 32.3909 30.1719 32.3909 27.3438C32.3909 24.5312 31.4691 22.9844 29.9534 22.9844C28.4378 22.9844 27.5159 24.5312 27.5159 27.3438C27.5159 30.1719 28.4222 31.6719 29.9534 31.6719ZM40.5391 21.1562L36.8984 34.7031H35.4141L39.0547 21.1562H40.5391ZM46.3747 21.6875V33H44.6403V23.4062H44.5778L41.8747 25.1719V23.5312L44.6872 21.6875H46.3747ZM39.5703 39.3281V45.1875H41.6797V46.4375H39.5703V53.3281H38.0859V39.3281H39.5703ZM28.4297 49.5156C29.5312 49.5156 30.8125 49.5156 32.1484 49.4688V48.0469C30.5703 47.8281 29.5391 46.875 29.5547 45.5156C29.5391 43.9375 30.8984 42.8906 32.8984 42.8906C34.8828 42.8906 36.2578 43.9375 36.2734 45.5156C36.2578 46.875 35.2109 47.8359 33.6328 48.0625V49.4062C34.875 49.3594 36.125 49.2578 37.2891 49.0938L37.3828 50.1875C34.3516 50.7344 31.0703 50.75 28.6641 50.75L28.4297 49.5156ZM37.0859 40.9844V42.1719H28.6953V40.9844H32.1484V39.3594H33.6328V40.9844H37.0859ZM32.8984 44.0469C31.7266 44.0469 30.9453 44.625 30.9453 45.5156C30.9453 46.4062 31.7266 46.9531 32.8984 46.9531C34.0703 46.9531 34.8516 46.4062 34.8516 45.5156C34.8516 44.625 34.0703 44.0469 32.8984 44.0469Z"/>
</mask>
<path d="M22.8209 21.6875V33H21.0866V23.4062H21.0241L18.3209 25.1719V23.5312L21.1334 21.6875H22.8209ZM29.9534 33.1562C27.3284 33.1562 25.7972 31.0469 25.7972 27.3438C25.7972 23.6719 27.3597 21.5312 29.9534 21.5312C32.5472 21.5312 34.1097 23.6719 34.1097 27.3438C34.1097 31.0469 32.5628 33.1562 29.9534 33.1562ZM29.9534 31.6719C31.4847 31.6719 32.3909 30.1719 32.3909 27.3438C32.3909 24.5312 31.4691 22.9844 29.9534 22.9844C28.4378 22.9844 27.5159 24.5312 27.5159 27.3438C27.5159 30.1719 28.4222 31.6719 29.9534 31.6719ZM40.5391 21.1562L36.8984 34.7031H35.4141L39.0547 21.1562H40.5391ZM46.3747 21.6875V33H44.6403V23.4062H44.5778L41.8747 25.1719V23.5312L44.6872 21.6875H46.3747ZM39.5703 39.3281V45.1875H41.6797V46.4375H39.5703V53.3281H38.0859V39.3281H39.5703ZM28.4297 49.5156C29.5312 49.5156 30.8125 49.5156 32.1484 49.4688V48.0469C30.5703 47.8281 29.5391 46.875 29.5547 45.5156C29.5391 43.9375 30.8984 42.8906 32.8984 42.8906C34.8828 42.8906 36.2578 43.9375 36.2734 45.5156C36.2578 46.875 35.2109 47.8359 33.6328 48.0625V49.4062C34.875 49.3594 36.125 49.2578 37.2891 49.0938L37.3828 50.1875C34.3516 50.7344 31.0703 50.75 28.6641 50.75L28.4297 49.5156ZM37.0859 40.9844V42.1719H28.6953V40.9844H32.1484V39.3594H33.6328V40.9844H37.0859ZM32.8984 44.0469C31.7266 44.0469 30.9453 44.625 30.9453 45.5156C30.9453 46.4062 31.7266 46.9531 32.8984 46.9531C34.0703 46.9531 34.8516 46.4062 34.8516 45.5156C34.8516 44.625 34.0703 44.0469 32.8984 44.0469Z" fill="#0C2557"/>
<path d="M22.8209 21.6875H23.8209V20.6875H22.8209V21.6875ZM22.8209 33V34H23.8209V33H22.8209ZM21.0866 33H20.0866V34H21.0866V33ZM21.0866 23.4062H22.0866V22.4062H21.0866V23.4062ZM21.0241 23.4062V22.4062H20.7264L20.4772 22.569L21.0241 23.4062ZM18.3209 25.1719H17.3209V27.0195L18.8678 26.0091L18.3209 25.1719ZM18.3209 23.5312L17.7727 22.6949L17.3209 22.9911V23.5312H18.3209ZM21.1334 21.6875V20.6875H20.8349L20.5852 20.8512L21.1334 21.6875ZM21.8209 21.6875V33H23.8209V21.6875H21.8209ZM22.8209 32H21.0866V34H22.8209V32ZM22.0866 33V23.4062H20.0866V33H22.0866ZM21.0866 22.4062H21.0241V24.4062H21.0866V22.4062ZM20.4772 22.569L17.7741 24.3346L18.8678 26.0091L21.5709 24.2435L20.4772 22.569ZM19.3209 25.1719V23.5312H17.3209V25.1719H19.3209ZM18.8692 24.3676L21.6817 22.5238L20.5852 20.8512L17.7727 22.6949L18.8692 24.3676ZM21.1334 22.6875H22.8209V20.6875H21.1334V22.6875ZM29.9534 32.1562C28.9455 32.1562 28.2164 31.7701 27.7033 31.0555C27.1587 30.297 26.7972 29.0777 26.7972 27.3438H24.7972C24.7972 29.3129 25.2013 30.9999 26.0786 32.2219C26.9874 33.4877 28.3364 34.1562 29.9534 34.1562V32.1562ZM26.7972 27.3438C26.7972 25.6311 27.1642 24.4097 27.7146 23.6443C28.2361 22.919 28.969 22.5312 29.9534 22.5312V20.5312C28.3441 20.5312 26.9989 21.2138 26.0908 22.4767C25.2114 23.6996 24.7972 25.3845 24.7972 27.3438H26.7972ZM29.9534 22.5312C30.9379 22.5312 31.6708 22.919 32.1923 23.6443C32.7427 24.4097 33.1097 25.6311 33.1097 27.3438H35.1097C35.1097 25.3845 34.6954 23.6996 33.8161 22.4767C32.908 21.2138 31.5628 20.5312 29.9534 20.5312V22.5312ZM33.1097 27.3438C33.1097 29.0757 32.7451 30.2952 32.1985 31.0544C31.6825 31.7712 30.9521 32.1562 29.9534 32.1562V34.1562C31.5641 34.1562 32.9119 33.4866 33.8216 32.2229C34.7009 31.0017 35.1097 29.3149 35.1097 27.3438H33.1097ZM29.9534 32.6719C31.1175 32.6719 32.0385 32.0687 32.6138 31.066C33.1556 30.1215 33.3909 28.8389 33.3909 27.3438H31.3909C31.3909 28.6767 31.1731 29.5581 30.879 30.0707C30.6184 30.5251 30.3206 30.6719 29.9534 30.6719V32.6719ZM33.3909 27.3438C33.3909 25.8522 33.1504 24.5655 32.6098 23.615C32.0403 22.6138 31.1245 21.9844 29.9534 21.9844V23.9844C30.298 23.9844 30.6009 24.1284 30.8713 24.6038C31.1705 25.1299 31.3909 26.0228 31.3909 27.3438H33.3909ZM29.9534 21.9844C28.7823 21.9844 27.8665 22.6138 27.2971 23.615C26.7565 24.5655 26.5159 25.8522 26.5159 27.3438H28.5159C28.5159 26.0228 28.7363 25.1299 29.0356 24.6038C29.306 24.1284 29.6089 23.9844 29.9534 23.9844V21.9844ZM26.5159 27.3438C26.5159 28.8389 26.7512 30.1215 27.2931 31.066C27.8684 32.0687 28.7893 32.6719 29.9534 32.6719V30.6719C29.5863 30.6719 29.2885 30.5251 29.0279 30.0707C28.7338 29.5581 28.5159 28.6767 28.5159 27.3438H26.5159ZM40.5391 21.1562L41.5048 21.4158L41.8433 20.1562H40.5391V21.1562ZM36.8984 34.7031V35.7031H37.6652L37.8642 34.9627L36.8984 34.7031ZM35.4141 34.7031L34.4483 34.4436L34.1098 35.7031H35.4141V34.7031ZM39.0547 21.1562V20.1562H38.2879L38.089 20.8967L39.0547 21.1562ZM39.5733 20.8967L35.9327 34.4436L37.8642 34.9627L41.5048 21.4158L39.5733 20.8967ZM36.8984 33.7031H35.4141V35.7031H36.8984V33.7031ZM36.3798 34.9627L40.0204 21.4158L38.089 20.8967L34.4483 34.4436L36.3798 34.9627ZM39.0547 22.1562H40.5391V20.1562H39.0547V22.1562ZM46.3747 21.6875H47.3747V20.6875H46.3747V21.6875ZM46.3747 33V34H47.3747V33H46.3747ZM44.6403 33H43.6403V34H44.6403V33ZM44.6403 23.4062H45.6403V22.4062H44.6403V23.4062ZM44.5778 23.4062V22.4062H44.2802L44.031 22.569L44.5778 23.4062ZM41.8747 25.1719H40.8747V27.0195L42.4215 26.0091L41.8747 25.1719ZM41.8747 23.5312L41.3264 22.6949L40.8747 22.9911V23.5312H41.8747ZM44.6872 21.6875V20.6875H44.3886L44.1389 20.8512L44.6872 21.6875ZM45.3747 21.6875V33H47.3747V21.6875H45.3747ZM46.3747 32H44.6403V34H46.3747V32ZM45.6403 33V23.4062H43.6403V33H45.6403ZM44.6403 22.4062H44.5778V24.4062H44.6403V22.4062ZM44.031 22.569L41.3278 24.3346L42.4215 26.0091L45.1247 24.2435L44.031 22.569ZM42.8747 25.1719V23.5312H40.8747V25.1719H42.8747ZM42.4229 24.3676L45.2354 22.5238L44.1389 20.8512L41.3264 22.6949L42.4229 24.3676ZM44.6872 22.6875H46.3747V20.6875H44.6872V22.6875ZM39.5703 39.3281H40.5703V38.3281H39.5703V39.3281ZM39.5703 45.1875H38.5703V46.1875H39.5703V45.1875ZM41.6797 45.1875H42.6797V44.1875H41.6797V45.1875ZM41.6797 46.4375V47.4375H42.6797V46.4375H41.6797ZM39.5703 46.4375V45.4375H38.5703V46.4375H39.5703ZM39.5703 53.3281V54.3281H40.5703V53.3281H39.5703ZM38.0859 53.3281H37.0859V54.3281H38.0859V53.3281ZM38.0859 39.3281V38.3281H37.0859V39.3281H38.0859ZM28.4297 49.5156V48.5156H27.2219L27.4472 49.7022L28.4297 49.5156ZM32.1484 49.4688L32.1835 50.4681L33.1484 50.4343V49.4688H32.1484ZM32.1484 48.0469H33.1484V47.1759L32.2857 47.0563L32.1484 48.0469ZM29.5547 45.5156L30.5546 45.5271L30.5547 45.5164L30.5546 45.5057L29.5547 45.5156ZM36.2734 45.5156L37.2734 45.5271L37.2735 45.5164L37.2734 45.5057L36.2734 45.5156ZM33.6328 48.0625L33.4907 47.0726L32.6328 47.1958V48.0625H33.6328ZM33.6328 49.4062H32.6328V50.4447L33.6705 50.4055L33.6328 49.4062ZM37.2891 49.0938L38.2854 49.0083L38.1952 47.9562L37.1495 48.1035L37.2891 49.0938ZM37.3828 50.1875L37.5604 51.1716L38.457 51.0099L38.3792 50.1021L37.3828 50.1875ZM28.6641 50.75L27.6816 50.9365L27.8361 51.75H28.6641V50.75ZM37.0859 40.9844H38.0859V39.9844H37.0859V40.9844ZM37.0859 42.1719V43.1719H38.0859V42.1719H37.0859ZM28.6953 42.1719H27.6953V43.1719H28.6953V42.1719ZM28.6953 40.9844V39.9844H27.6953V40.9844H28.6953ZM32.1484 40.9844V41.9844H33.1484V40.9844H32.1484ZM32.1484 39.3594V38.3594H31.1484V39.3594H32.1484ZM33.6328 39.3594H34.6328V38.3594H33.6328V39.3594ZM33.6328 40.9844H32.6328V41.9844H33.6328V40.9844ZM38.5703 39.3281V45.1875H40.5703V39.3281H38.5703ZM39.5703 46.1875H41.6797V44.1875H39.5703V46.1875ZM40.6797 45.1875V46.4375H42.6797V45.1875H40.6797ZM41.6797 45.4375H39.5703V47.4375H41.6797V45.4375ZM38.5703 46.4375V53.3281H40.5703V46.4375H38.5703ZM39.5703 52.3281H38.0859V54.3281H39.5703V52.3281ZM39.0859 53.3281V39.3281H37.0859V53.3281H39.0859ZM38.0859 40.3281H39.5703V38.3281H38.0859V40.3281ZM28.4297 50.5156C29.5295 50.5156 30.8275 50.5157 32.1835 50.4681L32.1134 48.4694C30.7975 48.5155 29.533 48.5156 28.4297 48.5156V50.5156ZM33.1484 49.4688V48.0469H31.1484V49.4688H33.1484ZM32.2857 47.0563C31.6563 46.9691 31.2155 46.7462 30.9469 46.488C30.6923 46.2433 30.55 45.9301 30.5546 45.5271L28.5548 45.5041C28.5438 46.4605 28.9092 47.3035 29.5609 47.9299C30.1986 48.5429 31.0624 48.9059 32.0111 49.0374L32.2857 47.0563ZM30.5546 45.5057C30.55 45.0366 30.7369 44.6722 31.0861 44.3996C31.457 44.11 32.0628 43.8906 32.8984 43.8906V41.8906C31.7341 41.8906 30.6602 42.1947 29.8553 42.8231C29.0287 43.4684 28.5438 44.4165 28.5547 45.5255L30.5546 45.5057ZM32.8984 43.8906C33.7239 43.8906 34.3328 44.1089 34.7126 44.4025C35.073 44.6811 35.2688 45.0536 35.2735 45.5255L37.2734 45.5057C37.2624 44.3995 36.7629 43.4595 35.9358 42.8202C35.1281 42.1958 34.0573 41.8906 32.8984 41.8906V43.8906ZM35.2735 45.5041C35.2653 46.2202 34.7462 46.8924 33.4907 47.0726L33.7749 49.0524C35.6757 48.7795 37.2504 47.5298 37.2734 45.5271L35.2735 45.5041ZM32.6328 48.0625V49.4062H34.6328V48.0625H32.6328ZM33.6705 50.4055C34.9403 50.3576 36.2249 50.2536 37.4286 50.084L37.1495 48.1035C36.0251 48.262 34.8097 48.3611 33.5951 48.407L33.6705 50.4055ZM36.2927 49.1792L36.3865 50.2729L38.3792 50.1021L38.2854 49.0083L36.2927 49.1792ZM37.2053 49.2034C34.2743 49.7322 31.0784 49.75 28.6641 49.75V51.75C31.0622 51.75 34.4288 51.7366 37.5604 51.1716L37.2053 49.2034ZM29.6465 50.5635L29.4121 49.3291L27.4472 49.7022L27.6816 50.9365L29.6465 50.5635ZM36.0859 40.9844V42.1719H38.0859V40.9844H36.0859ZM37.0859 41.1719H28.6953V43.1719H37.0859V41.1719ZM29.6953 42.1719V40.9844H27.6953V42.1719H29.6953ZM28.6953 41.9844H32.1484V39.9844H28.6953V41.9844ZM33.1484 40.9844V39.3594H31.1484V40.9844H33.1484ZM32.1484 40.3594H33.6328V38.3594H32.1484V40.3594ZM32.6328 39.3594V40.9844H34.6328V39.3594H32.6328ZM33.6328 41.9844H37.0859V39.9844H33.6328V41.9844ZM32.8984 43.0469C32.1601 43.0469 31.4427 43.2278 30.8832 43.6467C30.2983 44.0845 29.9453 44.7439 29.9453 45.5156H31.9453C31.9453 45.3967 31.9829 45.3218 32.0817 45.2478C32.2057 45.155 32.4649 45.0469 32.8984 45.0469V43.0469ZM29.9453 45.5156C29.9453 46.2916 30.3025 46.9477 30.8951 47.3777C31.4567 47.7853 32.1715 47.9531 32.8984 47.9531V45.9531C32.4535 45.9531 32.1917 45.8475 32.0698 45.759C31.9787 45.6929 31.9453 45.6303 31.9453 45.5156H29.9453ZM32.8984 47.9531C33.6254 47.9531 34.3402 47.7853 34.9018 47.3777C35.4943 46.9477 35.8516 46.2916 35.8516 45.5156H33.8516C33.8516 45.6303 33.8182 45.6929 33.7271 45.759C33.6051 45.8475 33.3434 45.9531 32.8984 45.9531V47.9531ZM35.8516 45.5156C35.8516 44.7439 35.4985 44.0845 34.9137 43.6467C34.3541 43.2278 33.6368 43.0469 32.8984 43.0469V45.0469C33.332 45.0469 33.5912 45.155 33.7152 45.2478C33.814 45.3218 33.8516 45.3967 33.8516 45.5156H35.8516Z" fill="#FBEFB5" mask="url(#path-3-outside-1_960_6896)"/>
</svg>
