<svg width="70" height="66" viewBox="0 0 70 66" fill="none" xmlns="http://www.w3.org/2000/svg">
<path fill-rule="evenodd" clip-rule="evenodd" d="M35 1C42.462 1 48.8635 5.54059 51.5922 12.0096C61.2592 12.322 69 20.257 69 30C69 35.4767 66.5541 40.3821 62.6951 43.6835C62.8953 44.7584 63 45.867 63 47C63 56.9411 54.9411 65 45 65C41.2997 65 37.8602 63.8835 35 61.9689C32.1398 63.8835 28.7003 65 25 65C15.0589 65 7 56.9411 7 47C7 45.867 7.10468 44.7584 7.3049 43.6835C3.44588 40.3821 1 35.4767 1 30C1 20.257 8.74078 12.322 18.4078 12.0096C21.1365 5.54059 27.538 1 35 1Z" fill="#FBEFB5"/>
<path d="M51.5922 12.0096L51.1315 12.2039L51.256 12.499L51.5761 12.5093L51.5922 12.0096ZM62.6951 43.6835L62.3701 43.3035L62.1507 43.4912L62.2035 43.775L62.6951 43.6835ZM35 61.9689L35.2781 61.5534L35 61.3672L34.7219 61.5534L35 61.9689ZM7.3049 43.6835L7.79645 43.775L7.84931 43.4912L7.62994 43.3035L7.3049 43.6835ZM18.4078 12.0096L18.4239 12.5093L18.744 12.499L18.8685 12.2039L18.4078 12.0096ZM52.0529 11.8152C49.2488 5.16756 42.67 0.5 35 0.5V1.5C42.2539 1.5 48.4781 5.91362 51.1315 12.2039L52.0529 11.8152ZM69.5 30C69.5 19.9863 61.5442 11.831 51.6084 11.5098L51.5761 12.5093C60.9742 12.8131 68.5 20.5278 68.5 30H69.5ZM63.0201 44.0634C66.9855 40.6711 69.5 35.6289 69.5 30H68.5C68.5 35.3244 66.1228 40.0931 62.3701 43.3035L63.0201 44.0634ZM62.2035 43.775C62.3982 44.8199 62.5 45.8978 62.5 47H63.5C63.5 45.8361 63.3925 44.6969 63.1866 43.5919L62.2035 43.775ZM62.5 47C62.5 56.665 54.665 64.5 45 64.5V65.5C55.2173 65.5 63.5 57.2173 63.5 47H62.5ZM45 64.5C41.4018 64.5 38.0586 63.4146 35.2781 61.5534L34.7219 62.3844C37.6618 64.3523 41.1976 65.5 45 65.5V64.5ZM25 65.5C28.8024 65.5 32.3382 64.3523 35.2781 62.3844L34.7219 61.5534C31.9414 63.4146 28.5982 64.5 25 64.5V65.5ZM6.5 47C6.5 57.2173 14.7827 65.5 25 65.5V64.5C15.335 64.5 7.5 56.665 7.5 47H6.5ZM6.81336 43.5919C6.60754 44.6969 6.5 45.8361 6.5 47H7.5C7.5 45.8978 7.60183 44.8199 7.79645 43.775L6.81336 43.5919ZM0.5 30C0.5 35.6289 3.01455 40.6711 6.97987 44.0634L7.62994 43.3035C3.87722 40.0931 1.5 35.3244 1.5 30H0.5ZM18.3916 11.5098C8.45579 11.831 0.5 19.9863 0.5 30H1.5C1.5 20.5278 9.02577 12.8131 18.4239 12.5093L18.3916 11.5098ZM35 0.5C27.33 0.5 20.7512 5.16756 17.9471 11.8152L18.8685 12.2039C21.5218 5.91362 27.7461 1.5 35 1.5V0.5Z" fill="#FBEFB5"/>
<path d="M21.6491 21.6875V33H19.9147V23.4062H19.8522L17.1491 25.1719V23.5312L19.9616 21.6875H21.6491ZM28.7816 33.1562C26.1566 33.1562 24.6253 31.0469 24.6253 27.3438C24.6253 23.6719 26.1878 21.5312 28.7816 21.5312C31.3753 21.5312 32.9378 23.6719 32.9378 27.3438C32.9378 31.0469 31.3909 33.1562 28.7816 33.1562ZM28.7816 31.6719C30.3128 31.6719 31.2191 30.1719 31.2191 27.3438C31.2191 24.5312 30.2972 22.9844 28.7816 22.9844C27.2659 22.9844 26.3441 24.5312 26.3441 27.3438C26.3441 30.1719 27.2503 31.6719 28.7816 31.6719ZM39.3672 21.1562L35.7266 34.7031H34.2422L37.8828 21.1562H39.3672ZM40.9059 33V31.75L44.8278 27.7969C46.0622 26.5 46.6872 25.7812 46.6872 24.7969C46.6872 23.6875 45.7809 22.9688 44.5934 22.9688C43.3434 22.9688 42.5309 23.7656 42.5309 24.9688H40.9059C40.8903 22.9062 42.4684 21.5312 44.6247 21.5312C46.8122 21.5312 48.3122 22.9062 48.3278 24.75C48.3122 26.0156 47.7184 27.0156 45.5934 29.1094L43.2966 31.4375V31.5312H48.5153V33H40.9059ZM35.7734 40.5625C35.7578 42.4219 38.0391 44.1719 40.7891 44.5312L40.2109 45.75C37.9219 45.3828 35.9062 44.1953 35.0078 42.5469C34.0859 44.2031 32.0781 45.3828 29.8047 45.75L29.2109 44.5312C31.9609 44.1719 34.2109 42.4375 34.2266 40.5625V39.7969H35.7734V40.5625ZM41.3672 47.125V48.3438H35.6797V53.3281H34.2266V48.3438H28.6016V47.125H41.3672Z" fill="#0C2557"/>
</svg>
