<svg width="447" height="1041" viewBox="0 0 447 1041" fill="none" xmlns="http://www.w3.org/2000/svg">
<path fill-rule="evenodd" clip-rule="evenodd" d="M314.197 548.996C322.26 541.004 326.672 529.498 325.184 517.357C322.63 496.52 303.669 481.699 282.832 484.253C272.457 485.525 263.573 490.865 257.584 498.478C233.889 490.34 207.091 491.234 182.798 503.091C165.281 511.641 151.456 524.723 142.047 540.236C128.937 525.894 109.318 517.896 88.5617 520.44C54.4842 524.617 30.2448 555.628 34.4216 589.706C35.2239 596.252 37.0163 602.434 39.6304 608.123C16.1317 619.299 1.3035 644.587 4.64324 671.835C8.82002 705.913 39.8313 730.152 73.9089 725.975C107.986 721.799 132.226 690.787 128.049 656.71C127.247 650.164 125.454 643.981 122.84 638.293C127.548 636.054 131.907 633.249 135.842 629.975C136.438 631.352 137.069 632.722 137.734 634.084C161.462 682.701 220.11 702.877 268.727 679.148C317.064 655.556 337.286 597.447 314.197 548.996Z" fill="url(#paint0_linear_645_7184)"/>
<path d="M355.05 734L355.522 769.689L373.3 739.024L356.34 770.174L386.66 752.75L356.813 771.015L391.55 771.5L356.813 771.985L386.66 790.25L356.34 772.826L373.3 803.976L355.522 773.311L355.05 809L354.577 773.311L336.8 803.976L353.759 772.826L323.44 790.25L353.287 771.985L318.55 771.5L353.287 771.015L323.44 752.75L353.759 770.174L336.8 739.024L354.577 769.689L355.05 734Z" fill="url(#paint1_radial_645_7184)"/>
<path d="M99.0498 634L99.3539 658.268L110.8 637.416L99.8807 658.598L119.401 646.75L100.185 659.17L122.55 659.5L100.185 659.83L119.401 672.25L99.8807 660.402L110.8 681.584L99.3539 660.732L99.0498 685L98.7457 660.732L87.2998 681.584L98.219 660.402L78.6982 672.25L97.9148 659.83L75.5498 659.5L97.9148 659.17L78.6982 646.75L98.219 658.598L87.2998 637.416L98.7457 658.268L99.0498 634Z" fill="url(#paint2_radial_645_7184)"/>
<path d="M97.5498 990L97.8345 1014.27L108.55 993.416L98.3276 1014.6L116.602 1002.75L98.6123 1015.17L119.55 1015.5L98.6123 1015.83L116.602 1028.25L98.3276 1016.4L108.55 1037.58L97.8345 1016.73L97.5498 1041L97.2651 1016.73L86.5498 1037.58L96.772 1016.4L78.4972 1028.25L96.4873 1015.83L75.5498 1015.5L96.4873 1015.17L78.4972 1002.75L96.772 1014.6L86.5498 993.416L97.2651 1014.27L97.5498 990Z" fill="url(#paint3_radial_645_7184)"/>
<path d="M400.55 156L401.145 202.633L423.55 162.565L402.176 203.268L440.387 180.5L402.771 204.366L446.55 205L402.771 205.634L440.387 229.5L402.176 206.732L423.55 247.435L401.145 207.367L400.55 254L399.955 207.367L377.55 247.435L398.923 206.732L360.713 229.5L398.328 205.634L354.55 205L398.328 204.366L360.713 180.5L398.923 203.268L377.55 162.565L399.955 202.633L400.55 156Z" fill="url(#paint4_radial_645_7184)"/>
<g opacity="0.65">
<circle cx="376.795" cy="538.055" r="22.2454" fill="#F6D1B1" fill-opacity="0.25"/>
<circle cx="403.851" cy="572.325" r="12.0245" fill="#F6D1B1" fill-opacity="0.45"/>
<circle cx="388.819" cy="512.804" r="1.80368" fill="#F6D1B1" fill-opacity="0.75"/>
<circle cx="384.01" cy="619.822" r="1.80368" fill="#F6D1B1" fill-opacity="0.75"/>
<circle cx="435.716" cy="584.951" r="1.80368" fill="#F6D1B1" fill-opacity="0.75"/>
<circle cx="423.691" cy="557.294" r="1.80368" fill="#F6D1B1" fill-opacity="0.75"/>
<circle cx="360.562" cy="556.693" r="3.60736" fill="#F6D1B1" fill-opacity="0.45"/>
<circle cx="376.194" cy="533.847" r="3.60736" fill="#F6D1B1" fill-opacity="0.45"/>
<circle cx="383.409" cy="544.669" r="3.60736" fill="#F6D1B1" fill-opacity="0.45"/>
<circle cx="376.194" cy="608.399" r="3.60736" fill="#F6D1B1" fill-opacity="0.45"/>
<circle cx="427.899" cy="573.528" r="3.60736" fill="#F6D1B1" fill-opacity="0.45"/>
</g>
<g opacity="0.65">
<ellipse cx="72.797" cy="290.624" rx="24.0876" ry="21.9924" transform="rotate(45 72.797 290.624)" fill="#F6D1B1" fill-opacity="0.45"/>
<ellipse cx="62.183" cy="310.464" rx="18.5676" ry="16.9525" transform="rotate(45 62.183 310.464)" fill="#F6D1B1" fill-opacity="0.25"/>
<ellipse cx="68.4464" cy="329.039" rx="10.0365" ry="9.16351" transform="rotate(45 68.4464 329.039)" fill="#F6D1B1" fill-opacity="0.45"/>
<ellipse cx="33.1477" cy="327.434" rx="6.02191" ry="5.4981" transform="rotate(45 33.1477 327.434)" fill="#F6D1B1" fill-opacity="0.45"/>
<ellipse cx="82.2389" cy="319.505" rx="3.01096" ry="2.74905" transform="rotate(45 82.2389 319.505)" fill="#F6D1B1" fill-opacity="0.45"/>
<ellipse cx="107.386" cy="306.423" rx="1.50548" ry="1.37453" transform="rotate(45 107.386 306.423)" fill="#F6D1B1" fill-opacity="0.75"/>
<ellipse cx="1.46763" cy="1.41486" rx="1.46763" ry="1.41486" transform="matrix(0.969307 0.245854 -0.164456 0.986384 44.3242 293.234)" fill="#F6D1B1" fill-opacity="0.75"/>
<ellipse cx="45.5203" cy="271.771" rx="1.50548" ry="1.37453" transform="rotate(45 45.5203 271.771)" fill="#F6D1B1" fill-opacity="0.75"/>
<ellipse cx="73.3514" cy="258.133" rx="1.50548" ry="1.37453" transform="rotate(45 73.3514 258.133)" fill="#F6D1B1" fill-opacity="0.75"/>
<ellipse cx="2.93526" cy="2.82973" rx="2.93526" ry="2.82973" transform="matrix(0.969307 0.245854 -0.164456 0.986384 38.4434 281.076)" fill="#F6D1B1" fill-opacity="0.45"/>
</g>
<path d="M260.55 890L262.105 899.015L271.55 900.5L262.105 901.985L260.55 911L258.994 901.985L249.55 900.5L258.994 899.015L260.55 890Z" fill="#F6D1B1"/>
<g opacity="0.65">
<ellipse cx="110.978" cy="959.72" rx="12.8571" ry="12.432" fill="#F6D1B1" fill-opacity="0.45"/>
<ellipse cx="121.693" cy="971.738" rx="15.8571" ry="15.3328" fill="#F6D1B1" fill-opacity="0.25"/>
<ellipse cx="92.1212" cy="980.44" rx="2.57143" ry="2.4864" fill="#F6D1B1" fill-opacity="0.45"/>
<ellipse cx="139.693" cy="940.243" rx="1.28571" ry="1.2432" fill="#F6D1B1" fill-opacity="0.75"/>
<ellipse cx="142.264" cy="999.917" rx="1.28571" ry="1.2432" fill="#F6D1B1" fill-opacity="0.75"/>
<ellipse cx="100.693" cy="989.557" rx="2.57143" ry="2.4864" fill="#F6D1B1" fill-opacity="0.45"/>
<ellipse cx="132.407" cy="947.288" rx="2.57143" ry="2.4864" fill="#F6D1B1" fill-opacity="0.45"/>
<ellipse cx="136.693" cy="992.043" rx="2.57143" ry="2.4864" fill="#F6D1B1" fill-opacity="0.45"/>
</g>
<g opacity="0.65">
<ellipse cx="99.7718" cy="21.4805" rx="13.3333" ry="12.8883" fill="#F6D1B1" fill-opacity="0.45"/>
<ellipse cx="110.883" cy="33.939" rx="16.4444" ry="15.8955" fill="#F6D1B1" fill-opacity="0.25"/>
<ellipse cx="80.2165" cy="42.9608" rx="2.66667" ry="2.57765" fill="#F6D1B1" fill-opacity="0.45"/>
<ellipse cx="129.55" cy="1.28883" rx="1.33333" ry="1.28883" fill="#F6D1B1" fill-opacity="0.75"/>
<ellipse cx="132.216" cy="63.1524" rx="1.33333" ry="1.28883" fill="#F6D1B1" fill-opacity="0.75"/>
<ellipse cx="89.1051" cy="52.4122" rx="2.66667" ry="2.57765" fill="#F6D1B1" fill-opacity="0.45"/>
<ellipse cx="121.994" cy="8.59218" rx="2.66667" ry="2.57765" fill="#F6D1B1" fill-opacity="0.45"/>
<ellipse cx="126.439" cy="54.9899" rx="2.66667" ry="2.57765" fill="#F6D1B1" fill-opacity="0.45"/>
</g>
<path d="M174.05 784L174.969 789.581L180.55 790.5L174.969 791.419L174.05 797L173.131 791.419L167.55 790.5L173.131 789.581L174.05 784Z" fill="#F6D1B1"/>
<g opacity="0.65">
<ellipse cx="320.966" cy="978.653" rx="16.1053" ry="16.1388" transform="rotate(-108.047 320.966 978.653)" fill="#F6D1B1" fill-opacity="0.25"/>
<ellipse cx="336.061" cy="983.664" rx="11.1071" ry="11.1302" transform="rotate(-108.047 336.061 983.664)" fill="#F6D1B1" fill-opacity="0.45"/>
<ellipse cx="345.091" cy="952.101" rx="1.66607" ry="1.66954" transform="rotate(-108.047 345.091 952.101)" fill="#F6D1B1" fill-opacity="0.75"/>
<ellipse cx="308.507" cy="997.899" rx="1.66607" ry="1.66954" transform="rotate(-108.047 308.507 997.899)" fill="#F6D1B1" fill-opacity="0.75"/>
<ellipse cx="290.912" cy="997.791" rx="1.66607" ry="1.66954" transform="rotate(-108.047 290.912 997.791)" fill="#F6D1B1" fill-opacity="0.75"/>
<ellipse cx="314.654" cy="975.453" rx="3.33213" ry="3.33907" transform="rotate(-108.047 314.654 975.453)" fill="#F6D1B1" fill-opacity="0.45"/>
<ellipse cx="336.931" cy="961.185" rx="3.33213" ry="3.33907" transform="rotate(-108.047 336.931 961.185)" fill="#F6D1B1" fill-opacity="0.45"/>
</g>
<g opacity="0.65">
<ellipse cx="331.226" cy="39.7596" rx="16.4188" ry="15.737" transform="rotate(-108.047 331.226 39.7596)" fill="#F6D1B1" fill-opacity="0.25"/>
<ellipse cx="346.075" cy="45.0442" rx="11.3233" ry="10.8531" transform="rotate(-108.047 346.075 45.0442)" fill="#F6D1B1" fill-opacity="0.45"/>
<ellipse cx="354.507" cy="13.1193" rx="1.69849" ry="1.62797" transform="rotate(-108.047 354.507 13.1193)" fill="#F6D1B1" fill-opacity="0.75"/>
<ellipse cx="319.276" cy="59.1354" rx="1.69849" ry="1.62797" transform="rotate(-108.047 319.276 59.1354)" fill="#F6D1B1" fill-opacity="0.75"/>
<ellipse cx="302.043" cy="58.7958" rx="1.69849" ry="1.62797" transform="rotate(-108.047 302.043 58.7958)" fill="#F6D1B1" fill-opacity="0.75"/>
<ellipse cx="325.004" cy="36.4278" rx="3.39698" ry="3.25594" transform="rotate(-108.047 325.004 36.4278)" fill="#F6D1B1" fill-opacity="0.45"/>
<ellipse cx="346.633" cy="22.2349" rx="3.39698" ry="3.25594" transform="rotate(-108.047 346.633 22.2349)" fill="#F6D1B1" fill-opacity="0.45"/>
</g>
<defs>
<linearGradient id="paint0_linear_645_7184" x1="127.031" y1="500.232" x2="173.721" y2="614.252" gradientUnits="userSpaceOnUse">
<stop stop-color="#BF9BF5" stop-opacity="0.33"/>
<stop offset="0.47624" stop-color="#43A5EF" stop-opacity="0.16"/>
<stop offset="0.904514" stop-color="#43A5EF" stop-opacity="0"/>
</linearGradient>
<radialGradient id="paint1_radial_645_7184" cx="0" cy="0" r="1" gradientUnits="userSpaceOnUse" gradientTransform="translate(355.05 771.5) rotate(90) scale(37.5 36.5)">
<stop stop-color="#F6D1B1"/>
<stop offset="1" stop-color="#99926F" stop-opacity="0"/>
</radialGradient>
<radialGradient id="paint2_radial_645_7184" cx="0" cy="0" r="1" gradientUnits="userSpaceOnUse" gradientTransform="translate(99.0498 659.5) rotate(90) scale(25.5 23.5)">
<stop stop-color="#F6D1B1"/>
<stop offset="1" stop-color="#99926F" stop-opacity="0"/>
</radialGradient>
<radialGradient id="paint3_radial_645_7184" cx="0" cy="0" r="1" gradientUnits="userSpaceOnUse" gradientTransform="translate(97.5498 1015.5) rotate(90) scale(25.5 22)">
<stop stop-color="#F6D1B1"/>
<stop offset="1" stop-color="#99926F" stop-opacity="0"/>
</radialGradient>
<radialGradient id="paint4_radial_645_7184" cx="0" cy="0" r="1" gradientUnits="userSpaceOnUse" gradientTransform="translate(400.55 205) rotate(90) scale(49 46)">
<stop stop-color="#F6D1B1"/>
<stop offset="1" stop-color="#99926F" stop-opacity="0"/>
</radialGradient>
</defs>
</svg>
