<svg width="393" height="749" viewBox="0 0 393 749" fill="none" xmlns="http://www.w3.org/2000/svg">
<g clip-path="url(#clip0_1025_7866)">
<mask id="mask0_1025_7866" style="mask-type:luminance" maskUnits="userSpaceOnUse" x="0" y="0" width="393" height="749">
<path d="M393 0H0V749H393V0Z" fill="white"/>
</mask>
<g mask="url(#mask0_1025_7866)">
<path fill-rule="evenodd" clip-rule="evenodd" d="M377.423 97.1947C381.955 92.0299 384.135 84.8981 382.726 77.6301C380.308 65.1575 368.236 57.0067 355.764 59.4248C349.553 60.6288 344.414 64.2263 341.118 69.0749C326.47 65.1574 310.329 66.8243 296.16 75.0046C285.944 80.9029 278.147 89.3828 273.119 99.1446C264.6 91.0368 252.419 87.033 239.994 89.4418C219.596 93.3965 206.265 113.139 210.22 133.538C210.98 137.456 212.322 141.114 214.139 144.438C200.422 152.174 192.533 168.065 195.695 184.376C199.649 204.774 219.392 218.105 239.791 214.15C260.189 210.196 273.52 190.453 269.565 170.054C268.806 166.136 267.463 162.479 265.646 159.154C268.394 157.605 270.908 155.728 273.146 153.586C273.564 154.392 274.002 155.193 274.461 155.987C290.831 184.342 327.088 194.057 355.443 177.686C383.634 161.41 393.4 125.476 377.423 97.1947Z" fill="url(#paint0_linear_1025_7866)"/>
<path fill-rule="evenodd" clip-rule="evenodd" d="M390.423 504.195C394.955 499.03 397.135 491.898 395.726 484.63C393.308 472.158 381.237 464.007 368.764 466.425C362.553 467.629 357.414 471.226 354.118 476.075C339.47 472.157 323.329 473.824 309.16 482.005C298.944 487.903 291.147 496.383 286.119 506.145C277.6 498.037 265.419 494.033 252.994 496.442C232.596 500.396 219.265 520.139 223.22 540.538C223.98 544.456 225.322 548.114 227.139 551.438C213.422 559.174 205.533 575.065 208.695 591.376C212.649 611.774 232.392 625.105 252.791 621.15C273.189 617.196 286.52 597.453 282.565 577.054C281.806 573.136 280.463 569.479 278.646 566.154C281.394 564.605 283.908 562.728 286.146 560.586C286.564 561.392 287.002 562.193 287.461 562.987C303.831 591.342 340.088 601.057 368.443 584.686C396.634 568.41 406.4 532.476 390.423 504.195Z" fill="url(#paint1_linear_1025_7866)"/>
<path fill-rule="evenodd" clip-rule="evenodd" d="M151.02 409.798C157.82 410.787 164.988 408.731 170.317 403.591C179.461 394.771 179.723 380.208 170.902 371.064C166.51 366.511 160.694 364.16 154.833 364.036C150.141 349.617 139.952 336.987 125.375 329.559C114.865 324.202 103.507 322.282 92.5807 323.381C94.7415 311.821 91.4657 299.424 82.6791 290.315C68.2532 275.361 44.4355 274.932 29.4808 289.358C26.6082 292.129 24.2716 295.246 22.4733 298.581C8.51475 291.289 -9.10953 293.327 -21.0673 304.862C-36.022 319.288 -36.4506 343.105 -22.0247 358.06C-7.59869 373.015 16.2189 373.443 31.1736 359.018C34.0462 356.247 36.3828 353.129 38.1811 349.794C40.9773 351.255 43.9206 352.341 46.9359 353.052C46.4873 353.841 46.0544 354.645 45.6379 355.462C30.7722 384.634 42.3697 420.334 71.5416 435.199C100.546 449.979 136.002 438.6 151.02 409.798Z" fill="url(#paint2_linear_1025_7866)"/>
<g filter="url(#filter0_d_1025_7866)">
<path d="M336.686 269.314L350.77 303.091L356.446 266.938L351.756 303.232L374.748 274.761L352.538 303.847L386.686 290.686L352.909 304.77L389.062 310.446L352.768 305.755L381.239 328.748L352.153 306.538L365.314 340.686L351.23 306.909L345.554 343.062L350.244 306.768L327.252 335.239L349.462 306.153L315.314 319.314L349.091 305.229L312.938 299.554L349.232 304.244L320.761 281.252L349.847 303.462L336.686 269.314Z" fill="url(#paint3_radial_1025_7866)"/>
</g>
<g filter="url(#filter1_d_1025_7866)">
<path d="M28.6856 598.314L42.7704 632.091L48.4463 595.938L43.7555 632.232L66.7475 603.761L44.5381 632.847L78.6856 619.686L44.9086 633.77L81.0618 639.446L44.7677 634.755L73.2393 657.748L44.153 635.538L57.3142 669.686L43.2294 635.909L37.5535 672.062L42.2443 635.768L19.2523 664.239L41.4617 635.153L7.31413 648.314L41.0912 634.229L4.93799 628.554L41.2321 633.244L12.7605 610.252L41.8468 632.462L28.6856 598.314Z" fill="url(#paint4_radial_1025_7866)"/>
</g>
<g filter="url(#filter2_d_1025_7866)">
<path d="M17.5 70L18.4192 75.5808L24 76.5L18.4192 77.4192L17.5 83L16.5808 77.4192L11 76.5L16.5808 75.5808L17.5 70Z" fill="#FBEFB5"/>
</g>
<g filter="url(#filter3_d_1025_7866)">
<path d="M359.5 4L360.419 9.58076L366 10.5L360.419 11.4192L359.5 17L358.581 11.4192L353 10.5L358.581 9.58076L359.5 4Z" fill="#FBEFB5"/>
</g>
<g filter="url(#filter4_d_1025_7866)">
<path d="M343.5 382L344.419 387.581L350 388.5L344.419 389.419L343.5 395L342.581 389.419L337 388.5L342.581 387.581L343.5 382Z" fill="#FBEFB5"/>
</g>
<g filter="url(#filter5_d_1025_7866)">
<path d="M29.5 683L30.4192 690.298L36 691.5L30.4192 692.702L29.5 700L28.5808 692.702L23 691.5L28.5808 690.298L29.5 683Z" fill="#FBEFB5"/>
</g>
<g filter="url(#filter6_d_1025_7866)">
<path d="M344.498 377.561C355.266 377.875 364.25 369.399 364.563 358.631C364.876 347.863 356.4 338.88 345.632 338.567C334.864 338.253 325.881 346.729 325.568 357.497C325.255 368.265 333.73 377.248 344.498 377.561Z" fill="#FFF4B9" fill-opacity="0.25"/>
<path d="M54.4974 738.561C65.2656 738.875 74.2487 730.399 74.5619 719.631C74.875 708.863 66.3996 699.88 55.6314 699.567C44.8633 699.253 35.8801 707.729 35.567 718.497C35.2538 729.265 43.7293 738.248 54.4974 738.561Z" fill="#FFF4B9" fill-opacity="0.25"/>
<path d="M358.074 380.491C362.059 380.491 365.289 377.261 365.289 373.276C365.289 369.291 362.059 366.061 358.074 366.061C354.09 366.061 350.859 369.291 350.859 373.276C350.859 377.261 354.09 380.491 358.074 380.491Z" fill="#FFF4B9" fill-opacity="0.45"/>
<path d="M37 745C42.5228 745 47 740.523 47 735C47 729.477 42.5228 725 37 725C31.4772 725 27 729.477 27 735C27 740.523 31.4772 745 37 745Z" fill="#FFF4B9" fill-opacity="0.45"/>
<path d="M375.509 379.289C376.505 379.289 377.312 378.481 377.312 377.485C377.312 376.489 376.505 375.681 375.509 375.681C374.513 375.681 373.705 376.489 373.705 377.485C373.705 378.481 374.513 379.289 375.509 379.289Z" fill="#FFF4B9" fill-opacity="0.75"/>
<path d="M328.614 344.417C329.61 344.417 330.418 343.609 330.418 342.613C330.418 341.617 329.61 340.809 328.614 340.809C327.618 340.809 326.811 341.617 326.811 342.613C326.811 343.609 327.618 344.417 328.614 344.417Z" fill="#FFF4B9" fill-opacity="0.75"/>
<path d="M332.221 360.05C333.217 360.05 334.025 359.242 334.025 358.246C334.025 357.25 333.217 356.442 332.221 356.442C331.225 356.442 330.417 357.25 330.417 358.246C330.417 359.242 331.225 360.05 332.221 360.05Z" fill="#FFF4B9" fill-opacity="0.75"/>
</g>
<g filter="url(#filter7_d_1025_7866)">
<path d="M343 163L343.99 169.01L350 170L343.99 170.99L343 177L342.01 170.99L336 170L342.01 169.01L343 163Z" fill="#FBEFB5"/>
</g>
<g filter="url(#filter8_d_1025_7866)">
<path d="M350.5 525L351.419 530.581L357 531.5L351.419 532.419L350.5 538L349.581 532.419L344 531.5L349.581 530.581L350.5 525Z" fill="#FBEFB5"/>
</g>
<g filter="url(#filter9_d_1025_7866)">
<path d="M33.5 459L34.4192 465.439L40 466.5L34.4192 467.561L33.5 474L32.5808 467.561L27 466.5L32.5808 465.439L33.5 459Z" fill="#FBEFB5"/>
</g>
<g filter="url(#filter10_d_1025_7866)">
<path d="M41.5 468L42.5607 477.874L49 479.5L42.5607 481.126L41.5 491L40.4393 481.126L34 479.5L40.4393 477.874L41.5 468Z" fill="#FBEFB5"/>
</g>
<g filter="url(#filter11_d_1025_7866)">
<path d="M335.5 144L336.561 153.874L343 155.5L336.561 157.126L335.5 167L334.439 157.126L328 155.5L334.439 153.874L335.5 144Z" fill="#FBEFB5"/>
</g>
<g filter="url(#filter12_d_1025_7866)">
<path d="M349.5 714L350.419 721.298L356 722.5L350.419 723.702L349.5 731L348.581 723.702L343 722.5L348.581 721.298L349.5 714Z" fill="#FBEFB5"/>
</g>
<g filter="url(#filter13_d_1025_7866)">
<path d="M356 695L357.273 705.105L365 706.769L357.273 708.434L356 718.538L354.727 708.434L347 706.769L354.727 705.105L356 695Z" fill="#FBEFB5"/>
</g>
<g filter="url(#filter14_d_1025_7866)">
<path d="M16.2031 212.307L25.4262 234.263L31.619 211.268L26.1754 234.452L44.7016 219.488L26.6705 235.045L50.4537 233.829L26.7224 235.815L46.6783 248.811L26.3114 236.47L34.8175 258.713L25.5944 236.757L19.4016 259.752L24.8453 236.568L6.31904 251.532L24.3502 235.975L0.566895 237.192L24.2982 235.205L4.34228 222.209L24.7092 234.55L16.2031 212.307Z" fill="url(#paint5_radial_1025_7866)"/>
</g>
</g>
</g>
<defs>
<filter id="filter0_d_1025_7866" x="308.938" y="262.938" width="84.124" height="84.124" filterUnits="userSpaceOnUse" color-interpolation-filters="sRGB">
<feFlood flood-opacity="0" result="BackgroundImageFix"/>
<feColorMatrix in="SourceAlpha" type="matrix" values="0 0 0 0 0 0 0 0 0 0 0 0 0 0 0 0 0 0 127 0" result="hardAlpha"/>
<feOffset/>
<feGaussianBlur stdDeviation="2"/>
<feComposite in2="hardAlpha" operator="out"/>
<feColorMatrix type="matrix" values="0 0 0 0 1 0 0 0 0 1 0 0 0 0 1 0 0 0 1 0"/>
<feBlend mode="normal" in2="BackgroundImageFix" result="effect1_dropShadow_1025_7866"/>
<feBlend mode="normal" in="SourceGraphic" in2="effect1_dropShadow_1025_7866" result="shape"/>
</filter>
<filter id="filter1_d_1025_7866" x="0.937988" y="591.938" width="84.124" height="84.124" filterUnits="userSpaceOnUse" color-interpolation-filters="sRGB">
<feFlood flood-opacity="0" result="BackgroundImageFix"/>
<feColorMatrix in="SourceAlpha" type="matrix" values="0 0 0 0 0 0 0 0 0 0 0 0 0 0 0 0 0 0 127 0" result="hardAlpha"/>
<feOffset/>
<feGaussianBlur stdDeviation="2"/>
<feComposite in2="hardAlpha" operator="out"/>
<feColorMatrix type="matrix" values="0 0 0 0 1 0 0 0 0 1 0 0 0 0 1 0 0 0 1 0"/>
<feBlend mode="normal" in2="BackgroundImageFix" result="effect1_dropShadow_1025_7866"/>
<feBlend mode="normal" in="SourceGraphic" in2="effect1_dropShadow_1025_7866" result="shape"/>
</filter>
<filter id="filter2_d_1025_7866" x="6" y="65" width="23" height="23" filterUnits="userSpaceOnUse" color-interpolation-filters="sRGB">
<feFlood flood-opacity="0" result="BackgroundImageFix"/>
<feColorMatrix in="SourceAlpha" type="matrix" values="0 0 0 0 0 0 0 0 0 0 0 0 0 0 0 0 0 0 127 0" result="hardAlpha"/>
<feOffset/>
<feGaussianBlur stdDeviation="2.5"/>
<feComposite in2="hardAlpha" operator="out"/>
<feColorMatrix type="matrix" values="0 0 0 0 1 0 0 0 0 1 0 0 0 0 1 0 0 0 1 0"/>
<feBlend mode="normal" in2="BackgroundImageFix" result="effect1_dropShadow_1025_7866"/>
<feBlend mode="normal" in="SourceGraphic" in2="effect1_dropShadow_1025_7866" result="shape"/>
</filter>
<filter id="filter3_d_1025_7866" x="349" y="0" width="21" height="21" filterUnits="userSpaceOnUse" color-interpolation-filters="sRGB">
<feFlood flood-opacity="0" result="BackgroundImageFix"/>
<feColorMatrix in="SourceAlpha" type="matrix" values="0 0 0 0 0 0 0 0 0 0 0 0 0 0 0 0 0 0 127 0" result="hardAlpha"/>
<feOffset/>
<feGaussianBlur stdDeviation="2"/>
<feComposite in2="hardAlpha" operator="out"/>
<feColorMatrix type="matrix" values="0 0 0 0 1 0 0 0 0 1 0 0 0 0 1 0 0 0 1 0"/>
<feBlend mode="normal" in2="BackgroundImageFix" result="effect1_dropShadow_1025_7866"/>
<feBlend mode="normal" in="SourceGraphic" in2="effect1_dropShadow_1025_7866" result="shape"/>
</filter>
<filter id="filter4_d_1025_7866" x="333" y="378" width="21" height="21" filterUnits="userSpaceOnUse" color-interpolation-filters="sRGB">
<feFlood flood-opacity="0" result="BackgroundImageFix"/>
<feColorMatrix in="SourceAlpha" type="matrix" values="0 0 0 0 0 0 0 0 0 0 0 0 0 0 0 0 0 0 127 0" result="hardAlpha"/>
<feOffset/>
<feGaussianBlur stdDeviation="2"/>
<feComposite in2="hardAlpha" operator="out"/>
<feColorMatrix type="matrix" values="0 0 0 0 1 0 0 0 0 1 0 0 0 0 1 0 0 0 1 0"/>
<feBlend mode="normal" in2="BackgroundImageFix" result="effect1_dropShadow_1025_7866"/>
<feBlend mode="normal" in="SourceGraphic" in2="effect1_dropShadow_1025_7866" result="shape"/>
</filter>
<filter id="filter5_d_1025_7866" x="19" y="679" width="21" height="25" filterUnits="userSpaceOnUse" color-interpolation-filters="sRGB">
<feFlood flood-opacity="0" result="BackgroundImageFix"/>
<feColorMatrix in="SourceAlpha" type="matrix" values="0 0 0 0 0 0 0 0 0 0 0 0 0 0 0 0 0 0 127 0" result="hardAlpha"/>
<feOffset/>
<feGaussianBlur stdDeviation="2"/>
<feComposite in2="hardAlpha" operator="out"/>
<feColorMatrix type="matrix" values="0 0 0 0 1 0 0 0 0 1 0 0 0 0 1 0 0 0 1 0"/>
<feBlend mode="normal" in2="BackgroundImageFix" result="effect1_dropShadow_1025_7866"/>
<feBlend mode="normal" in="SourceGraphic" in2="effect1_dropShadow_1025_7866" result="shape"/>
</filter>
<filter id="filter6_d_1025_7866" x="23" y="334.559" width="358.312" height="414.441" filterUnits="userSpaceOnUse" color-interpolation-filters="sRGB">
<feFlood flood-opacity="0" result="BackgroundImageFix"/>
<feColorMatrix in="SourceAlpha" type="matrix" values="0 0 0 0 0 0 0 0 0 0 0 0 0 0 0 0 0 0 127 0" result="hardAlpha"/>
<feOffset/>
<feGaussianBlur stdDeviation="2"/>
<feComposite in2="hardAlpha" operator="out"/>
<feColorMatrix type="matrix" values="0 0 0 0 1 0 0 0 0 1 0 0 0 0 1 0 0 0 0.5 0"/>
<feBlend mode="normal" in2="BackgroundImageFix" result="effect1_dropShadow_1025_7866"/>
<feBlend mode="normal" in="SourceGraphic" in2="effect1_dropShadow_1025_7866" result="shape"/>
</filter>
<filter id="filter7_d_1025_7866" x="332" y="159" width="22" height="22" filterUnits="userSpaceOnUse" color-interpolation-filters="sRGB">
<feFlood flood-opacity="0" result="BackgroundImageFix"/>
<feColorMatrix in="SourceAlpha" type="matrix" values="0 0 0 0 0 0 0 0 0 0 0 0 0 0 0 0 0 0 127 0" result="hardAlpha"/>
<feOffset/>
<feGaussianBlur stdDeviation="2"/>
<feComposite in2="hardAlpha" operator="out"/>
<feColorMatrix type="matrix" values="0 0 0 0 1 0 0 0 0 1 0 0 0 0 1 0 0 0 1 0"/>
<feBlend mode="normal" in2="BackgroundImageFix" result="effect1_dropShadow_1025_7866"/>
<feBlend mode="normal" in="SourceGraphic" in2="effect1_dropShadow_1025_7866" result="shape"/>
</filter>
<filter id="filter8_d_1025_7866" x="338" y="519" width="25" height="25" filterUnits="userSpaceOnUse" color-interpolation-filters="sRGB">
<feFlood flood-opacity="0" result="BackgroundImageFix"/>
<feColorMatrix in="SourceAlpha" type="matrix" values="0 0 0 0 0 0 0 0 0 0 0 0 0 0 0 0 0 0 127 0" result="hardAlpha"/>
<feOffset/>
<feGaussianBlur stdDeviation="3"/>
<feComposite in2="hardAlpha" operator="out"/>
<feColorMatrix type="matrix" values="0 0 0 0 1 0 0 0 0 1 0 0 0 0 1 0 0 0 1 0"/>
<feBlend mode="normal" in2="BackgroundImageFix" result="effect1_dropShadow_1025_7866"/>
<feBlend mode="normal" in="SourceGraphic" in2="effect1_dropShadow_1025_7866" result="shape"/>
</filter>
<filter id="filter9_d_1025_7866" x="23" y="455" width="21" height="23" filterUnits="userSpaceOnUse" color-interpolation-filters="sRGB">
<feFlood flood-opacity="0" result="BackgroundImageFix"/>
<feColorMatrix in="SourceAlpha" type="matrix" values="0 0 0 0 0 0 0 0 0 0 0 0 0 0 0 0 0 0 127 0" result="hardAlpha"/>
<feOffset/>
<feGaussianBlur stdDeviation="2"/>
<feComposite in2="hardAlpha" operator="out"/>
<feColorMatrix type="matrix" values="0 0 0 0 1 0 0 0 0 1 0 0 0 0 1 0 0 0 1 0"/>
<feBlend mode="normal" in2="BackgroundImageFix" result="effect1_dropShadow_1025_7866"/>
<feBlend mode="normal" in="SourceGraphic" in2="effect1_dropShadow_1025_7866" result="shape"/>
</filter>
<filter id="filter10_d_1025_7866" x="30" y="464" width="23" height="31" filterUnits="userSpaceOnUse" color-interpolation-filters="sRGB">
<feFlood flood-opacity="0" result="BackgroundImageFix"/>
<feColorMatrix in="SourceAlpha" type="matrix" values="0 0 0 0 0 0 0 0 0 0 0 0 0 0 0 0 0 0 127 0" result="hardAlpha"/>
<feOffset/>
<feGaussianBlur stdDeviation="2"/>
<feComposite in2="hardAlpha" operator="out"/>
<feColorMatrix type="matrix" values="0 0 0 0 1 0 0 0 0 1 0 0 0 0 1 0 0 0 1 0"/>
<feBlend mode="normal" in2="BackgroundImageFix" result="effect1_dropShadow_1025_7866"/>
<feBlend mode="normal" in="SourceGraphic" in2="effect1_dropShadow_1025_7866" result="shape"/>
</filter>
<filter id="filter11_d_1025_7866" x="324" y="140" width="23" height="31" filterUnits="userSpaceOnUse" color-interpolation-filters="sRGB">
<feFlood flood-opacity="0" result="BackgroundImageFix"/>
<feColorMatrix in="SourceAlpha" type="matrix" values="0 0 0 0 0 0 0 0 0 0 0 0 0 0 0 0 0 0 127 0" result="hardAlpha"/>
<feOffset/>
<feGaussianBlur stdDeviation="2"/>
<feComposite in2="hardAlpha" operator="out"/>
<feColorMatrix type="matrix" values="0 0 0 0 1 0 0 0 0 1 0 0 0 0 1 0 0 0 1 0"/>
<feBlend mode="normal" in2="BackgroundImageFix" result="effect1_dropShadow_1025_7866"/>
<feBlend mode="normal" in="SourceGraphic" in2="effect1_dropShadow_1025_7866" result="shape"/>
</filter>
<filter id="filter12_d_1025_7866" x="339" y="710" width="21" height="25" filterUnits="userSpaceOnUse" color-interpolation-filters="sRGB">
<feFlood flood-opacity="0" result="BackgroundImageFix"/>
<feColorMatrix in="SourceAlpha" type="matrix" values="0 0 0 0 0 0 0 0 0 0 0 0 0 0 0 0 0 0 127 0" result="hardAlpha"/>
<feOffset/>
<feGaussianBlur stdDeviation="2"/>
<feComposite in2="hardAlpha" operator="out"/>
<feColorMatrix type="matrix" values="0 0 0 0 1 0 0 0 0 1 0 0 0 0 1 0 0 0 1 0"/>
<feBlend mode="normal" in2="BackgroundImageFix" result="effect1_dropShadow_1025_7866"/>
<feBlend mode="normal" in="SourceGraphic" in2="effect1_dropShadow_1025_7866" result="shape"/>
</filter>
<filter id="filter13_d_1025_7866" x="341.462" y="689.462" width="29.0769" height="34.615" filterUnits="userSpaceOnUse" color-interpolation-filters="sRGB">
<feFlood flood-opacity="0" result="BackgroundImageFix"/>
<feColorMatrix in="SourceAlpha" type="matrix" values="0 0 0 0 0 0 0 0 0 0 0 0 0 0 0 0 0 0 127 0" result="hardAlpha"/>
<feOffset/>
<feGaussianBlur stdDeviation="2.76923"/>
<feComposite in2="hardAlpha" operator="out"/>
<feColorMatrix type="matrix" values="0 0 0 0 1 0 0 0 0 1 0 0 0 0 1 0 0 0 1 0"/>
<feBlend mode="normal" in2="BackgroundImageFix" result="effect1_dropShadow_1025_7866"/>
<feBlend mode="normal" in="SourceGraphic" in2="effect1_dropShadow_1025_7866" result="shape"/>
</filter>
<filter id="filter14_d_1025_7866" x="-5.43311" y="205.268" width="61.8867" height="60.484" filterUnits="userSpaceOnUse" color-interpolation-filters="sRGB">
<feFlood flood-opacity="0" result="BackgroundImageFix"/>
<feColorMatrix in="SourceAlpha" type="matrix" values="0 0 0 0 0 0 0 0 0 0 0 0 0 0 0 0 0 0 127 0" result="hardAlpha"/>
<feOffset/>
<feGaussianBlur stdDeviation="3"/>
<feComposite in2="hardAlpha" operator="out"/>
<feColorMatrix type="matrix" values="0 0 0 0 1 0 0 0 0 1 0 0 0 0 1 0 0 0 1 0"/>
<feBlend mode="normal" in2="BackgroundImageFix" result="effect1_dropShadow_1025_7866"/>
<feBlend mode="normal" in="SourceGraphic" in2="effect1_dropShadow_1025_7866" result="shape"/>
</filter>
<linearGradient id="paint0_linear_1025_7866" x1="262.37" y1="75.6238" x2="295.355" y2="142.5" gradientUnits="userSpaceOnUse">
<stop stop-color="#BF9BF5" stop-opacity="0.33"/>
<stop offset="0.47624" stop-color="#43A5EF" stop-opacity="0.16"/>
<stop offset="0.904514" stop-color="#43A5EF" stop-opacity="0"/>
</linearGradient>
<linearGradient id="paint1_linear_1025_7866" x1="275.37" y1="482.624" x2="308.355" y2="549.5" gradientUnits="userSpaceOnUse">
<stop stop-color="#BF9BF5" stop-opacity="0.33"/>
<stop offset="0.47624" stop-color="#43A5EF" stop-opacity="0.16"/>
<stop offset="0.904514" stop-color="#43A5EF" stop-opacity="0"/>
</linearGradient>
<linearGradient id="paint2_linear_1025_7866" x1="106.454" y1="301.557" x2="68.3283" y2="365.641" gradientUnits="userSpaceOnUse">
<stop stop-color="#BF9BF5" stop-opacity="0.33"/>
<stop offset="0.47624" stop-color="#43A5EF" stop-opacity="0.16"/>
<stop offset="0.904514" stop-color="#43A5EF" stop-opacity="0"/>
</linearGradient>
<radialGradient id="paint3_radial_1025_7866" cx="0" cy="0" r="1" gradientUnits="userSpaceOnUse" gradientTransform="translate(351 305) rotate(68.1433) scale(38.4496)">
<stop stop-color="#FBEFB5"/>
<stop offset="1" stop-color="#FBEFB5" stop-opacity="0"/>
</radialGradient>
<radialGradient id="paint4_radial_1025_7866" cx="0" cy="0" r="1" gradientUnits="userSpaceOnUse" gradientTransform="translate(42.9999 634) rotate(68.1433) scale(38.4496 38.4496)">
<stop stop-color="#FBEFB5"/>
<stop offset="1" stop-color="#FBEFB5" stop-opacity="0"/>
</radialGradient>
<radialGradient id="paint5_radial_1025_7866" cx="0" cy="0" r="1" gradientUnits="userSpaceOnUse" gradientTransform="translate(25.5103 235.51) rotate(68.1433) scale(25 25)">
<stop stop-color="#FBEFB5"/>
<stop offset="1" stop-color="#FBEFB5" stop-opacity="0"/>
</radialGradient>
<clipPath id="clip0_1025_7866">
<rect width="393" height="749" fill="white"/>
</clipPath>
</defs>
</svg>
