<svg width="393" height="541" viewBox="0 0 393 541" fill="none" xmlns="http://www.w3.org/2000/svg">
<g opacity="0.65" filter="url(#filter0_d_1025_7064)">
<circle cx="45.9529" cy="326.072" r="18.0368" transform="rotate(-35.6871 45.9529 326.072)" fill="#FBEFB5" fill-opacity="0.45"/>
<circle cx="68.3322" cy="331.465" r="22.2454" transform="rotate(-35.6871 68.3322 331.465)" fill="#D9C1D3" fill-opacity="0.25"/>
<circle cx="42.0031" cy="365.92" r="3.60736" transform="rotate(-35.6871 42.0031 365.92)" fill="#FBEFB5" fill-opacity="0.45"/>
<circle cx="62.1861" cy="279.622" r="1.80368" transform="rotate(-35.6871 62.1861 279.622)" fill="#FBEFB5" fill-opacity="0.75"/>
<circle cx="115.622" cy="347.836" r="1.80368" transform="rotate(-35.6871 115.622 347.836)" fill="#FBEFB5" fill-opacity="0.75"/>
<circle cx="59.4855" cy="369.649" r="3.60736" transform="rotate(-35.6871 59.4855 369.649)" fill="#FBEFB5" fill-opacity="0.45"/>
<circle cx="59.8468" cy="293.885" r="3.60736" transform="rotate(-35.6871 59.8468 293.885)" fill="#FBEFB5" fill-opacity="0.45"/>
<circle cx="102.61" cy="343.117" r="3.60736" transform="rotate(-35.6871 102.61 343.117)" fill="#FBEFB5" fill-opacity="0.45"/>
</g>
<g filter="url(#filter1_d_1025_7064)">
<path d="M35.3731 382.194L51.3079 420.408L57.7293 379.506L52.4224 420.568L78.4345 388.356L53.3079 421.263L91.9407 406.373L53.727 422.308L94.629 428.729L53.5676 423.422L85.779 449.434L52.8722 424.308L67.7621 462.941L51.8273 424.727L45.4059 465.629L50.7127 424.568L24.7007 456.779L49.8273 423.872L11.1945 438.762L49.4082 422.827L8.50621 416.406L49.5676 421.713L17.3562 395.701L50.263 420.827L35.3731 382.194Z" fill="url(#paint0_radial_1025_7064)" shape-rendering="crispEdges"/>
</g>
<g filter="url(#filter2_d_1025_7064)">
<path d="M331.373 273.194L347.308 311.408L353.729 270.506L348.422 311.568L374.435 279.356L349.308 312.263L387.941 297.373L349.727 313.308L390.629 319.729L349.568 314.422L381.779 340.434L348.872 315.308L363.762 353.941L347.827 315.727L341.406 356.629L346.713 315.568L320.701 347.779L345.827 314.872L307.194 329.762L345.408 313.827L304.506 307.406L345.568 312.713L313.356 286.701L346.263 311.827L331.373 273.194Z" fill="url(#paint1_radial_1025_7064)" shape-rendering="crispEdges"/>
</g>
<g filter="url(#filter3_d_1025_7064)">
<path d="M41.5 6L43.692 18.8787L57 21L43.692 23.1213L41.5 36L39.308 23.1213L26 21L39.308 18.8787L41.5 6Z" fill="#FBEFB5"/>
</g>
<g filter="url(#filter4_d_1025_7064)">
<path d="M26.5 277L28.692 289.879L42 292L28.692 294.121L26.5 307L24.308 294.121L11 292L24.308 289.879L26.5 277Z" fill="#FBEFB5"/>
</g>
<g filter="url(#filter5_d_1025_7064)">
<path d="M75.5 457L76.5607 463.232L83 464.258L76.5607 465.285L75.5 471.516L74.4393 465.285L68 464.258L74.4393 463.232L75.5 457Z" fill="#FBEFB5"/>
</g>
<g filter="url(#filter6_d_1025_7064)">
<circle cx="353.291" cy="462.291" r="48.471" transform="rotate(-11.6964 353.291 462.291)" fill="#F1FFDA" fill-opacity="0.45"/>
<circle cx="311.806" cy="500.807" r="28.6806" transform="rotate(-16.9809 311.806 500.807)" fill="#F1FFDA" fill-opacity="0.25"/>
<circle cx="294.252" cy="465.252" r="1.80368" transform="rotate(-16.9809 294.252 465.252)" fill="#F1FFDA" fill-opacity="0.75"/>
<circle cx="286.242" cy="457.242" r="5" transform="rotate(-16.9809 286.242 457.242)" fill="#F1FFDA" fill-opacity="0.75"/>
<g filter="url(#filter7_d_1025_7064)">
<path d="M351.5 512L353.268 522.732L364 524.5L353.268 526.268L351.5 537L349.732 526.268L339 524.5L349.732 522.732L351.5 512Z" fill="#F9FFEC"/>
</g>
<circle cx="365.752" cy="513.62" r="1.80368" transform="rotate(-16.9809 365.752 513.62)" fill="#F1FFDA" fill-opacity="0.75"/>
</g>
<path fill-rule="evenodd" clip-rule="evenodd" d="M386.437 389.922C392.517 386.72 397.104 380.84 398.388 373.548C400.591 361.036 392.234 349.107 379.722 346.903C373.492 345.806 367.406 347.327 362.593 350.676C350.316 341.778 334.646 337.561 318.489 340.131C306.838 341.985 296.524 347.115 288.337 354.432C283.282 343.814 273.339 335.717 260.875 333.522C240.411 329.919 220.901 343.586 217.297 364.05C216.605 367.981 216.55 371.876 217.058 375.631C201.481 377.948 188.429 389.966 185.548 406.329C181.944 426.792 195.612 446.303 216.076 449.907C236.539 453.51 256.05 439.843 259.654 419.379C260.346 415.448 260.401 411.552 259.893 407.798C263.013 407.334 266.032 406.48 268.888 405.281C268.99 406.183 269.113 407.087 269.257 407.993C274.402 440.328 304.785 462.37 337.119 457.225C369.267 452.11 391.241 422.047 386.437 389.922Z" fill="url(#paint2_linear_1025_7064)"/>
<path fill-rule="evenodd" clip-rule="evenodd" d="M172.49 149.797C179.31 148.952 185.679 145.073 189.457 138.706C195.942 127.781 192.342 113.668 181.416 107.183C175.976 103.954 169.746 103.226 164.06 104.657C155.721 91.9933 142.554 82.5085 126.531 79.2013C114.978 76.8167 103.516 77.9693 93.2708 81.9194C92.2964 70.1998 85.8576 59.1114 74.9743 52.6518C57.106 42.0465 34.0235 47.9343 23.4182 65.8027C21.3811 69.2349 19.9525 72.8596 19.1005 76.5512C3.7101 73.2121 -12.7472 79.8398 -21.2271 94.1272C-31.8325 111.996 -25.9446 135.078 -8.07632 145.683C9.792 156.289 32.8745 150.401 43.4798 132.532C45.5169 129.1 46.9455 125.476 47.7975 121.784C50.8805 122.453 54.0063 122.722 57.1022 122.609C56.8784 123.489 56.6736 124.379 56.4881 125.277C49.8698 157.343 70.4987 188.702 102.564 195.32C134.445 201.9 165.627 181.546 172.49 149.797Z" fill="url(#paint3_linear_1025_7064)"/>
<g filter="url(#filter8_d_1025_7064)">
<path d="M338.499 188L340.691 200.879L353.999 203L340.691 205.121L338.499 218L336.307 205.121L322.999 203L336.307 200.879L338.499 188Z" fill="#FBEFB5"/>
</g>
<g filter="url(#filter9_d_1025_7064)">
<path d="M349.999 57L351.244 71.6332L360.999 73.5L351.244 75.3668L349.999 90L348.755 75.3668L338.999 73.5L348.755 71.6332L349.999 57Z" fill="#FBEFB5"/>
</g>
<g filter="url(#filter10_d_1025_7064)">
<circle cx="81.0796" cy="455.08" r="1.80368" transform="rotate(9.64352 81.0796 455.08)" fill="#FFF4B9" fill-opacity="0.75" shape-rendering="crispEdges"/>
</g>
<g filter="url(#filter11_d_1025_7064)">
<circle cx="316.25" cy="102.232" r="22.2454" transform="rotate(9.64352 316.25 102.232)" fill="#FFF4B9" fill-opacity="0.25"/>
<circle cx="337.182" cy="140.549" r="12.0245" transform="rotate(9.64352 337.182 140.549)" fill="#FFF4B9" fill-opacity="0.45"/>
<circle cx="332.335" cy="79.3512" r="1.80368" transform="rotate(9.64352 332.335 79.3512)" fill="#FFF4B9" fill-opacity="0.75"/>
<circle cx="309.665" cy="184.052" r="1.80368" transform="rotate(9.64352 309.665 184.052)" fill="#FFF4B9" fill-opacity="0.75"/>
<circle cx="366.482" cy="158.335" r="1.80368" transform="rotate(9.64352 366.482 158.335)" fill="#FFF4B9" fill-opacity="0.75"/>
<circle cx="359.26" cy="129.055" r="1.80368" transform="rotate(9.64352 359.26 129.055)" fill="#FFF4B9" fill-opacity="0.75"/>
<circle cx="297.124" cy="117.887" r="3.60736" transform="rotate(9.64352 297.124 117.887)" fill="#FFF4B9" fill-opacity="0.45"/>
<circle cx="337.16" cy="93.1607" r="3.60736" transform="rotate(9.64352 337.16 93.1607)" fill="#FFF4B9" fill-opacity="0.45"/>
<circle cx="325.16" cy="135.161" r="3.60736" transform="rotate(9.64352 325.16 135.161)" fill="#FFF4B9" fill-opacity="0.45"/>
<circle cx="303.874" cy="171.48" r="3.60736" transform="rotate(9.64352 303.874 171.48)" fill="#FFF4B9" fill-opacity="0.45"/>
<circle cx="360.69" cy="145.763" r="3.60736" transform="rotate(9.64352 360.69 145.763)" fill="#FFF4B9" fill-opacity="0.45"/>
</g>
<defs>
<filter id="filter0_d_1025_7064" x="23.915" y="273.818" width="97.5107" height="103.439" filterUnits="userSpaceOnUse" color-interpolation-filters="sRGB">
<feFlood flood-opacity="0" result="BackgroundImageFix"/>
<feColorMatrix in="SourceAlpha" type="matrix" values="0 0 0 0 0 0 0 0 0 0 0 0 0 0 0 0 0 0 127 0" result="hardAlpha"/>
<feOffset/>
<feGaussianBlur stdDeviation="2"/>
<feComposite in2="hardAlpha" operator="out"/>
<feColorMatrix type="matrix" values="0 0 0 0 1 0 0 0 0 1 0 0 0 0 1 0 0 0 0.5 0"/>
<feBlend mode="normal" in2="BackgroundImageFix" result="effect1_dropShadow_1025_7064"/>
<feBlend mode="normal" in="SourceGraphic" in2="effect1_dropShadow_1025_7064" result="shape"/>
</filter>
<filter id="filter1_d_1025_7064" x="4.50586" y="375.506" width="94.123" height="94.1227" filterUnits="userSpaceOnUse" color-interpolation-filters="sRGB">
<feFlood flood-opacity="0" result="BackgroundImageFix"/>
<feColorMatrix in="SourceAlpha" type="matrix" values="0 0 0 0 0 0 0 0 0 0 0 0 0 0 0 0 0 0 127 0" result="hardAlpha"/>
<feOffset/>
<feGaussianBlur stdDeviation="2"/>
<feComposite in2="hardAlpha" operator="out"/>
<feColorMatrix type="matrix" values="0 0 0 0 1 0 0 0 0 1 0 0 0 0 1 0 0 0 1 0"/>
<feBlend mode="normal" in2="BackgroundImageFix" result="effect1_dropShadow_1025_7064"/>
<feBlend mode="normal" in="SourceGraphic" in2="effect1_dropShadow_1025_7064" result="shape"/>
</filter>
<filter id="filter2_d_1025_7064" x="300.506" y="266.506" width="94.123" height="94.1227" filterUnits="userSpaceOnUse" color-interpolation-filters="sRGB">
<feFlood flood-opacity="0" result="BackgroundImageFix"/>
<feColorMatrix in="SourceAlpha" type="matrix" values="0 0 0 0 0 0 0 0 0 0 0 0 0 0 0 0 0 0 127 0" result="hardAlpha"/>
<feOffset/>
<feGaussianBlur stdDeviation="2"/>
<feComposite in2="hardAlpha" operator="out"/>
<feColorMatrix type="matrix" values="0 0 0 0 1 0 0 0 0 1 0 0 0 0 1 0 0 0 1 0"/>
<feBlend mode="normal" in2="BackgroundImageFix" result="effect1_dropShadow_1025_7064"/>
<feBlend mode="normal" in="SourceGraphic" in2="effect1_dropShadow_1025_7064" result="shape"/>
</filter>
<filter id="filter3_d_1025_7064" x="21" y="1" width="41" height="40" filterUnits="userSpaceOnUse" color-interpolation-filters="sRGB">
<feFlood flood-opacity="0" result="BackgroundImageFix"/>
<feColorMatrix in="SourceAlpha" type="matrix" values="0 0 0 0 0 0 0 0 0 0 0 0 0 0 0 0 0 0 127 0" result="hardAlpha"/>
<feOffset/>
<feGaussianBlur stdDeviation="2.5"/>
<feComposite in2="hardAlpha" operator="out"/>
<feColorMatrix type="matrix" values="0 0 0 0 1 0 0 0 0 1 0 0 0 0 1 0 0 0 1 0"/>
<feBlend mode="normal" in2="BackgroundImageFix" result="effect1_dropShadow_1025_7064"/>
<feBlend mode="normal" in="SourceGraphic" in2="effect1_dropShadow_1025_7064" result="shape"/>
</filter>
<filter id="filter4_d_1025_7064" x="6" y="272" width="41" height="40" filterUnits="userSpaceOnUse" color-interpolation-filters="sRGB">
<feFlood flood-opacity="0" result="BackgroundImageFix"/>
<feColorMatrix in="SourceAlpha" type="matrix" values="0 0 0 0 0 0 0 0 0 0 0 0 0 0 0 0 0 0 127 0" result="hardAlpha"/>
<feOffset/>
<feGaussianBlur stdDeviation="2.5"/>
<feComposite in2="hardAlpha" operator="out"/>
<feColorMatrix type="matrix" values="0 0 0 0 1 0 0 0 0 1 0 0 0 0 1 0 0 0 1 0"/>
<feBlend mode="normal" in2="BackgroundImageFix" result="effect1_dropShadow_1025_7064"/>
<feBlend mode="normal" in="SourceGraphic" in2="effect1_dropShadow_1025_7064" result="shape"/>
</filter>
<filter id="filter5_d_1025_7064" x="58" y="447" width="35" height="34.5161" filterUnits="userSpaceOnUse" color-interpolation-filters="sRGB">
<feFlood flood-opacity="0" result="BackgroundImageFix"/>
<feColorMatrix in="SourceAlpha" type="matrix" values="0 0 0 0 0 0 0 0 0 0 0 0 0 0 0 0 0 0 127 0" result="hardAlpha"/>
<feOffset/>
<feGaussianBlur stdDeviation="5"/>
<feComposite in2="hardAlpha" operator="out"/>
<feColorMatrix type="matrix" values="0 0 0 0 1 0 0 0 0 1 0 0 0 0 1 0 0 0 1 0"/>
<feBlend mode="normal" in2="BackgroundImageFix" result="effect1_dropShadow_1025_7064"/>
<feBlend mode="normal" in="SourceGraphic" in2="effect1_dropShadow_1025_7064" result="shape"/>
</filter>
<filter id="filter6_d_1025_7064" x="277.241" y="409.81" width="128.53" height="131.19" filterUnits="userSpaceOnUse" color-interpolation-filters="sRGB">
<feFlood flood-opacity="0" result="BackgroundImageFix"/>
<feColorMatrix in="SourceAlpha" type="matrix" values="0 0 0 0 0 0 0 0 0 0 0 0 0 0 0 0 0 0 127 0" result="hardAlpha"/>
<feOffset/>
<feGaussianBlur stdDeviation="2"/>
<feComposite in2="hardAlpha" operator="out"/>
<feColorMatrix type="matrix" values="0 0 0 0 1 0 0 0 0 1 0 0 0 0 1 0 0 0 0.25 0"/>
<feBlend mode="normal" in2="BackgroundImageFix" result="effect1_dropShadow_1025_7064"/>
<feBlend mode="normal" in="SourceGraphic" in2="effect1_dropShadow_1025_7064" result="shape"/>
</filter>
<filter id="filter7_d_1025_7064" x="335" y="508" width="33" height="33" filterUnits="userSpaceOnUse" color-interpolation-filters="sRGB">
<feFlood flood-opacity="0" result="BackgroundImageFix"/>
<feColorMatrix in="SourceAlpha" type="matrix" values="0 0 0 0 0 0 0 0 0 0 0 0 0 0 0 0 0 0 127 0" result="hardAlpha"/>
<feOffset/>
<feGaussianBlur stdDeviation="2"/>
<feComposite in2="hardAlpha" operator="out"/>
<feColorMatrix type="matrix" values="0 0 0 0 1 0 0 0 0 1 0 0 0 0 1 0 0 0 0.5 0"/>
<feBlend mode="normal" in2="BackgroundImageFix" result="effect1_dropShadow_1025_7064"/>
<feBlend mode="normal" in="SourceGraphic" in2="effect1_dropShadow_1025_7064" result="shape"/>
</filter>
<filter id="filter8_d_1025_7064" x="314.999" y="180" width="47" height="46" filterUnits="userSpaceOnUse" color-interpolation-filters="sRGB">
<feFlood flood-opacity="0" result="BackgroundImageFix"/>
<feColorMatrix in="SourceAlpha" type="matrix" values="0 0 0 0 0 0 0 0 0 0 0 0 0 0 0 0 0 0 127 0" result="hardAlpha"/>
<feOffset/>
<feGaussianBlur stdDeviation="4"/>
<feComposite in2="hardAlpha" operator="out"/>
<feColorMatrix type="matrix" values="0 0 0 0 1 0 0 0 0 1 0 0 0 0 1 0 0 0 1 0"/>
<feBlend mode="normal" in2="BackgroundImageFix" result="effect1_dropShadow_1025_7064"/>
<feBlend mode="normal" in="SourceGraphic" in2="effect1_dropShadow_1025_7064" result="shape"/>
</filter>
<filter id="filter9_d_1025_7064" x="333.999" y="52" width="32" height="43" filterUnits="userSpaceOnUse" color-interpolation-filters="sRGB">
<feFlood flood-opacity="0" result="BackgroundImageFix"/>
<feColorMatrix in="SourceAlpha" type="matrix" values="0 0 0 0 0 0 0 0 0 0 0 0 0 0 0 0 0 0 127 0" result="hardAlpha"/>
<feOffset/>
<feGaussianBlur stdDeviation="2.5"/>
<feComposite in2="hardAlpha" operator="out"/>
<feColorMatrix type="matrix" values="0 0 0 0 1 0 0 0 0 1 0 0 0 0 1 0 0 0 1 0"/>
<feBlend mode="normal" in2="BackgroundImageFix" result="effect1_dropShadow_1025_7064"/>
<feBlend mode="normal" in="SourceGraphic" in2="effect1_dropShadow_1025_7064" result="shape"/>
</filter>
<filter id="filter10_d_1025_7064" x="75.2754" y="449.276" width="11.6084" height="11.6079" filterUnits="userSpaceOnUse" color-interpolation-filters="sRGB">
<feFlood flood-opacity="0" result="BackgroundImageFix"/>
<feColorMatrix in="SourceAlpha" type="matrix" values="0 0 0 0 0 0 0 0 0 0 0 0 0 0 0 0 0 0 127 0" result="hardAlpha"/>
<feOffset/>
<feGaussianBlur stdDeviation="2"/>
<feComposite in2="hardAlpha" operator="out"/>
<feColorMatrix type="matrix" values="0 0 0 0 1 0 0 0 0 1 0 0 0 0 1 0 0 0 0.5 0"/>
<feBlend mode="normal" in2="BackgroundImageFix" result="effect1_dropShadow_1025_7064"/>
<feBlend mode="normal" in="SourceGraphic" in2="effect1_dropShadow_1025_7064" result="shape"/>
</filter>
<filter id="filter11_d_1025_7064" x="289.516" y="73.5472" width="82.7705" height="116.308" filterUnits="userSpaceOnUse" color-interpolation-filters="sRGB">
<feFlood flood-opacity="0" result="BackgroundImageFix"/>
<feColorMatrix in="SourceAlpha" type="matrix" values="0 0 0 0 0 0 0 0 0 0 0 0 0 0 0 0 0 0 127 0" result="hardAlpha"/>
<feOffset/>
<feGaussianBlur stdDeviation="2"/>
<feComposite in2="hardAlpha" operator="out"/>
<feColorMatrix type="matrix" values="0 0 0 0 1 0 0 0 0 1 0 0 0 0 1 0 0 0 0.5 0"/>
<feBlend mode="normal" in2="BackgroundImageFix" result="effect1_dropShadow_1025_7064"/>
<feBlend mode="normal" in="SourceGraphic" in2="effect1_dropShadow_1025_7064" result="shape"/>
</filter>
<radialGradient id="paint0_radial_1025_7064" cx="0" cy="0" r="1" gradientUnits="userSpaceOnUse" gradientTransform="translate(51.5676 422.568) rotate(68.1433) scale(43.5)">
<stop stop-color="#FBEFB5"/>
<stop offset="1" stop-color="#FBEFB5" stop-opacity="0"/>
</radialGradient>
<radialGradient id="paint1_radial_1025_7064" cx="0" cy="0" r="1" gradientUnits="userSpaceOnUse" gradientTransform="translate(347.568 313.568) rotate(68.1433) scale(43.5)">
<stop stop-color="#FBEFB5"/>
<stop offset="1" stop-color="#FBEFB5" stop-opacity="0"/>
</radialGradient>
<linearGradient id="paint2_linear_1025_7064" x1="286.713" y1="328.623" x2="293.593" y2="402.873" gradientUnits="userSpaceOnUse">
<stop stop-color="#BF9BF5" stop-opacity="0.33"/>
<stop offset="0.47624" stop-color="#43A5EF" stop-opacity="0.16"/>
<stop offset="0.904514" stop-color="#43A5EF" stop-opacity="0"/>
</linearGradient>
<linearGradient id="paint3_linear_1025_7064" x1="100.876" y1="57.2028" x2="81.0628" y2="129.09" gradientUnits="userSpaceOnUse">
<stop stop-color="#BF9BF5" stop-opacity="0.33"/>
<stop offset="0.47624" stop-color="#43A5EF" stop-opacity="0.16"/>
<stop offset="0.904514" stop-color="#43A5EF" stop-opacity="0"/>
</linearGradient>
</defs>
</svg>
