<svg width="69" height="66" viewBox="0 0 69 66" fill="none" xmlns="http://www.w3.org/2000/svg">
<path fill-rule="evenodd" clip-rule="evenodd" d="M34.5 1C41.962 1 48.3635 5.5406 51.092 12.0096C60.759 12.322 68.5 20.257 68.5 30C68.5 35.4767 66.054 40.3821 62.195 43.6835C62.395 44.7584 62.5 45.867 62.5 47C62.5 56.941 54.441 65 44.5 65C40.7997 65 37.3602 63.883 34.5 61.969C31.6398 63.883 28.2003 65 24.5 65C14.5589 65 6.5 56.941 6.5 47C6.5 45.867 6.6047 44.7584 6.8049 43.6835C2.9459 40.3821 0.5 35.4767 0.5 30C0.5 20.257 8.2408 12.322 17.9078 12.0096C20.6365 5.5406 27.038 1 34.5 1Z" fill="#FBEFB5"/>
<path d="M51.092 12.0096L50.632 12.2039L50.756 12.499L51.076 12.5093L51.092 12.0096ZM62.195 43.6835L61.87 43.3035L61.651 43.4912L61.704 43.775L62.195 43.6835ZM34.5 61.969L34.7781 61.553L34.5 61.367L34.2219 61.553L34.5 61.969ZM6.8049 43.6835L7.2965 43.775L7.3493 43.4912L7.1299 43.3035L6.8049 43.6835ZM17.9078 12.0096L17.9239 12.5093L18.244 12.499L18.3685 12.2039L17.9078 12.0096ZM51.553 11.8152C48.7488 5.1676 42.17 0.5 34.5 0.5V1.5C41.7539 1.5 47.9782 5.9136 50.632 12.2039L51.553 11.8152ZM69 30C69 19.9863 61.044 11.831 51.108 11.5098L51.076 12.5093C60.474 12.8131 68 20.5278 68 30H69ZM62.52 44.0634C66.485 40.6711 69 35.6289 69 30H68C68 35.3244 65.623 40.0931 61.87 43.3035L62.52 44.0634ZM61.704 43.775C61.898 44.8199 62 45.8978 62 47H63C63 45.8361 62.892 44.6969 62.687 43.5919L61.704 43.775ZM62 47C62 56.665 54.165 64.5 44.5 64.5V65.5C54.717 65.5 63 57.217 63 47H62ZM44.5 64.5C40.9018 64.5 37.5586 63.415 34.7781 61.553L34.2219 62.384C37.1618 64.352 40.6976 65.5 44.5 65.5V64.5ZM24.5 65.5C28.3024 65.5 31.8382 64.352 34.7781 62.384L34.2219 61.553C31.4414 63.415 28.0982 64.5 24.5 64.5V65.5ZM6 47C6 57.217 14.2827 65.5 24.5 65.5V64.5C14.835 64.5 7 56.665 7 47H6ZM6.3134 43.5919C6.1075 44.6969 6 45.8361 6 47H7C7 45.8978 7.1018 44.8199 7.2965 43.775L6.3134 43.5919ZM0 30C0 35.6289 2.5145 40.6711 6.4799 44.0634L7.1299 43.3035C3.3772 40.0931 1 35.3244 1 30H0ZM17.8916 11.5098C7.9558 11.831 0 19.9863 0 30H1C1 20.5278 8.5258 12.8131 17.9239 12.5093L17.8916 11.5098ZM34.5 0.5C26.83 0.5 20.2512 5.1676 17.4471 11.8152L18.3685 12.2039C21.0218 5.9136 27.2461 1.5 34.5 1.5V0.5Z" fill="#FBEFB5"/>
<path d="M26.0688 31H24.1518V23.624H24.101L22 24.957V23.2559L24.2724 21.8086H26.0688V31ZM31.7753 31.127C31.0094 31.127 30.3492 30.9429 29.7949 30.5747C29.2447 30.2065 28.8216 29.6691 28.5253 28.9624C28.2334 28.2515 28.0874 27.3988 28.0874 26.4043C28.0874 25.4098 28.2334 24.5592 28.5253 23.8525C28.8216 23.1458 29.2469 22.6084 29.8012 22.2402C30.3556 21.8678 31.0136 21.6816 31.7753 21.6816C32.5371 21.6816 33.1951 21.8678 33.7495 22.2402C34.3038 22.6084 34.7291 23.1479 35.0253 23.8589C35.3216 24.5656 35.4697 25.4141 35.4697 26.4043C35.4697 27.403 35.3216 28.2557 35.0253 28.9624C34.7334 29.6691 34.3102 30.2065 33.7558 30.5747C33.2014 30.9429 32.5413 31.127 31.7753 31.127ZM31.7753 29.5527C32.1308 29.5527 32.4397 29.4364 32.7021 29.2036C32.9687 28.9709 33.1718 28.6196 33.3115 28.1499C33.4511 27.6759 33.5188 27.0941 33.5146 26.4043C33.5146 25.7188 33.4448 25.1411 33.3051 24.6714C33.1655 24.1974 32.9645 23.842 32.7021 23.605C32.4397 23.368 32.1308 23.2495 31.7753 23.2495C31.4199 23.2495 31.111 23.368 30.8486 23.605C30.5904 23.842 30.3894 24.1974 30.2456 24.6714C30.1017 25.1411 30.0297 25.7188 30.0297 26.4043C30.0297 27.0941 30.0996 27.6759 30.2392 28.1499C30.3831 28.6196 30.5862 28.9709 30.8486 29.2036C31.111 29.4364 31.4199 29.5527 31.7753 29.5527ZM37.8056 32.3838H36.1933L39.1513 21.377H40.7763L37.8056 32.3838ZM45.5815 31H43.6645V23.624H43.6137L41.5126 24.957V23.2559L43.7851 21.8086H45.5815V31Z" fill="#0C2557"/>
<path d="M32.8853 49.0591H31.4864V46.9131H32.8853V49.0591ZM38.4517 52.238H37.0528V39.1128H38.4517V52.238ZM40.4219 45.7852H38.0049V44.6279H40.4219V45.7852ZM28 48.6709C29.6407 48.6709 31.1348 48.6489 32.4825 48.605C33.8301 48.5562 35.1045 48.4438 36.3057 48.2681L36.3936 49.3081C35.5196 49.4595 34.6089 49.5742 33.6617 49.6523C32.7144 49.7256 31.8184 49.7744 30.9737 49.7988C30.1289 49.8232 29.2085 49.8354 28.2124 49.8354L28 48.6709ZM36.1153 41.7861H28.2417V40.6729H36.1153V41.7861ZM32.1968 42.4746C32.812 42.4746 33.3565 42.5771 33.8301 42.7822C34.3037 42.9824 34.6748 43.2656 34.9434 43.6318C35.2168 43.998 35.3535 44.4277 35.3535 44.9209C35.3535 45.3994 35.2168 45.8218 34.9434 46.188C34.6748 46.5493 34.3037 46.8325 33.8301 47.0376C33.3565 47.2427 32.812 47.3452 32.1968 47.3452C31.5816 47.3452 31.0347 47.2427 30.5562 47.0376C30.0777 46.8325 29.7066 46.5493 29.4429 46.188C29.1841 45.8218 29.0547 45.3994 29.0547 44.9209C29.0547 44.4277 29.1841 43.998 29.4429 43.6318C29.7066 43.2656 30.0777 42.9824 30.5562 42.7822C31.0347 42.5771 31.5816 42.4746 32.1968 42.4746ZM32.1968 43.5366C31.8355 43.5366 31.5157 43.5952 31.2373 43.7124C30.9639 43.8247 30.7491 43.9858 30.5928 44.1958C30.4366 44.4009 30.3584 44.6426 30.3584 44.9209C30.3584 45.1895 30.4341 45.4287 30.5855 45.6387C30.7368 45.8438 30.9517 46 31.23 46.1074C31.5132 46.21 31.8355 46.2612 32.1968 46.2612C32.5581 46.2612 32.8755 46.21 33.149 46.1074C33.4273 46 33.6421 45.8438 33.7935 45.6387C33.9449 45.4287 34.0205 45.1895 34.0205 44.9209C34.0205 44.6426 33.9449 44.4009 33.7935 44.1958C33.6421 43.9858 33.4273 43.8247 33.149 43.7124C32.8755 43.5952 32.5581 43.5366 32.1968 43.5366ZM32.8853 41.4346H31.4864V39.1567H32.8853V41.4346Z" fill="#0C2557"/>
</svg>
