<svg width="70" height="66" viewBox="0 0 70 66" fill="none" xmlns="http://www.w3.org/2000/svg">
<g clip-path="url(#clip0_1188_7647)">
<path fill-rule="evenodd" clip-rule="evenodd" d="M35 1C42.462 1 48.8635 5.54059 51.5922 12.0096C61.2592 12.322 69 20.257 69 30C69 35.4767 66.5541 40.3821 62.6951 43.6835C62.8953 44.7584 63 45.867 63 47C63 56.9411 54.9411 65 45 65C41.2997 65 37.8602 63.8835 35 61.9689C32.1398 63.8835 28.7003 65 25 65C15.0589 65 7 56.9411 7 47C7 45.867 7.10468 44.7584 7.3049 43.6835C3.44588 40.3821 1 35.4767 1 30C1 20.257 8.74078 12.322 18.4078 12.0096C21.1365 5.54059 27.538 1 35 1Z" fill="white"/>
<path d="M51.5922 12.0096L51.1315 12.2039L51.256 12.499L51.5761 12.5093L51.5922 12.0096ZM62.6951 43.6835L62.3701 43.3035L62.1507 43.4912L62.2035 43.775L62.6951 43.6835ZM35 61.9689L35.2781 61.5534L35 61.3672L34.7219 61.5534L35 61.9689ZM7.3049 43.6835L7.79645 43.775L7.84931 43.4912L7.62994 43.3035L7.3049 43.6835ZM18.4078 12.0096L18.4239 12.5093L18.744 12.499L18.8685 12.2039L18.4078 12.0096ZM52.0529 11.8152C49.2488 5.16756 42.67 0.5 35 0.5V1.5C42.2539 1.5 48.4782 5.91362 51.1315 12.2039L52.0529 11.8152ZM69.5 30C69.5 19.9863 61.5442 11.831 51.6084 11.5098L51.5761 12.5093C60.9742 12.8131 68.5 20.5278 68.5 30H69.5ZM63.0201 44.0634C66.9855 40.6711 69.5 35.6289 69.5 30H68.5C68.5 35.3244 66.1228 40.0931 62.3701 43.3035L63.0201 44.0634ZM62.2035 43.775C62.3982 44.8199 62.5 45.8978 62.5 47H63.5C63.5 45.8361 63.3925 44.6969 63.1866 43.5919L62.2035 43.775ZM62.5 47C62.5 56.665 54.665 64.5 45 64.5V65.5C55.2173 65.5 63.5 57.2173 63.5 47H62.5ZM45 64.5C41.4018 64.5 38.0586 63.4146 35.2781 61.5534L34.7219 62.3844C37.6618 64.3523 41.1976 65.5 45 65.5V64.5ZM25 65.5C28.8024 65.5 32.3382 64.3523 35.2781 62.3844L34.7219 61.5534C31.9414 63.4146 28.5982 64.5 25 64.5V65.5ZM6.5 47C6.5 57.2173 14.7827 65.5 25 65.5V64.5C15.335 64.5 7.5 56.665 7.5 47H6.5ZM6.81336 43.5919C6.60754 44.6969 6.5 45.8361 6.5 47H7.5C7.5 45.8978 7.60183 44.8199 7.79645 43.775L6.81336 43.5919ZM0.5 30C0.5 35.6289 3.01455 40.6711 6.97987 44.0634L7.62994 43.3035C3.87722 40.0931 1.5 35.3244 1.5 30H0.5ZM18.3916 11.5098C8.45579 11.831 0.5 19.9863 0.5 30H1.5C1.5 20.5278 9.02577 12.8131 18.4239 12.5093L18.3916 11.5098ZM35 0.5C27.33 0.5 20.7512 5.16756 17.9471 11.8152L18.8685 12.2039C21.5218 5.91362 27.7461 1.5 35 1.5V0.5Z" fill="white"/>
<path d="M24.3754 31H22.4584V23.624H22.4076L20.3066 24.957V23.2559L22.579 21.8086H24.3754V31ZM30.0819 31.127C29.316 31.127 28.6558 30.9429 28.1015 30.5747C27.5513 30.2065 27.1282 29.6691 26.8319 28.9624C26.54 28.2515 26.394 27.3988 26.394 26.4043C26.394 25.4098 26.54 24.5592 26.8319 23.8525C27.1282 23.1458 27.5535 22.6084 28.1078 22.2402C28.6622 21.8678 29.3202 21.6816 30.0819 21.6816C30.8437 21.6816 31.5017 21.8678 32.0561 22.2402C32.6104 22.6084 33.0357 23.1479 33.3319 23.8589C33.6282 24.5656 33.7763 25.4141 33.7763 26.4043C33.7763 27.403 33.6282 28.2557 33.3319 28.9624C33.04 29.6691 32.6168 30.2065 32.0624 30.5747C31.508 30.9429 30.8479 31.127 30.0819 31.127ZM30.0819 29.5527C30.4374 29.5527 30.7463 29.4364 31.0087 29.2036C31.2753 28.9709 31.4784 28.6196 31.6181 28.1499C31.7577 27.6759 31.8254 27.0941 31.8212 26.4043C31.8212 25.7188 31.7514 25.1411 31.6117 24.6714C31.4721 24.1974 31.2711 23.842 31.0087 23.605C30.7463 23.368 30.4374 23.2495 30.0819 23.2495C29.7265 23.2495 29.4176 23.368 29.1552 23.605C28.897 23.842 28.696 24.1974 28.5522 24.6714C28.4083 25.1411 28.3363 25.7188 28.3363 26.4043C28.3363 27.0941 28.4062 27.6759 28.5458 28.1499C28.6897 28.6196 28.8928 28.9709 29.1552 29.2036C29.4176 29.4364 29.7265 29.5527 30.0819 29.5527ZM36.1122 32.3838H34.4999L37.4579 21.377H39.0829L36.1122 32.3838ZM43.8881 31H41.9711V23.624H41.9203L39.8192 24.957V23.2559L42.0917 21.8086H43.8881V31Z" fill="#0C2557"/>
<path d="M32.2251 49.0591H30.8262V46.9131H32.2251V49.0591ZM37.7915 52.2378H36.3926V39.1128H37.7915V52.2378ZM39.7617 45.7852H37.3447V44.6279H39.7617V45.7852ZM27.3398 48.6709C28.9805 48.6709 30.4746 48.6489 31.8223 48.605C33.1699 48.5562 34.4443 48.4438 35.6455 48.2681L35.7334 49.3081C34.8594 49.4595 33.9487 49.5742 33.0015 49.6523C32.0542 49.7256 31.1582 49.7744 30.3135 49.7988C29.4687 49.8232 28.5483 49.8354 27.5522 49.8354L27.3398 48.6709ZM35.4551 41.7861H27.5815V40.6729H35.4551V41.7861ZM31.5366 42.4746C32.1518 42.4746 32.6963 42.5771 33.1699 42.7822C33.6435 42.9824 34.0146 43.2656 34.2832 43.6318C34.5566 43.998 34.6933 44.4277 34.6933 44.9209C34.6933 45.3994 34.5566 45.8218 34.2832 46.188C34.0146 46.5493 33.6435 46.8325 33.1699 47.0376C32.6963 47.2427 32.1518 47.3452 31.5366 47.3452C30.9214 47.3452 30.3745 47.2427 29.896 47.0376C29.4175 46.8325 29.0464 46.5493 28.7827 46.188C28.5239 45.8218 28.3945 45.3994 28.3945 44.9209C28.3945 44.4277 28.5239 43.998 28.7827 43.6318C29.0464 43.2656 29.4175 42.9824 29.896 42.7822C30.3745 42.5771 30.9214 42.4746 31.5366 42.4746ZM31.5366 43.5366C31.1753 43.5366 30.8555 43.5952 30.5771 43.7124C30.3037 43.8247 30.0889 43.9858 29.9326 44.1958C29.7764 44.4009 29.6982 44.6426 29.6982 44.9209C29.6982 45.1895 29.7739 45.4287 29.9253 45.6387C30.0766 45.8438 30.2915 46 30.5698 46.1074C30.853 46.21 31.1753 46.2612 31.5366 46.2612C31.8979 46.2612 32.2153 46.21 32.4888 46.1074C32.7671 46 32.9819 45.8438 33.1333 45.6387C33.2847 45.4287 33.3603 45.1895 33.3603 44.9209C33.3603 44.6426 33.2847 44.4009 33.1333 44.1958C32.9819 43.9858 32.7671 43.8247 32.4888 43.7124C32.2153 43.5952 31.8979 43.5366 31.5366 43.5366ZM32.2251 41.4346H30.8262V39.1567H32.2251V41.4346Z" fill="#0C2557"/>
</g>
<defs>
<clipPath id="clip0_1188_7647">
<rect width="70" height="66" fill="white"/>
</clipPath>
</defs>
</svg>
